<svg xmlns="http://www.w3.org/2000/svg" xmlns:xlink="http://www.w3.org/1999/xlink" width="1080" zoomAndPan="magnify" viewBox="0 0 810 809.999993" height="1080" preserveAspectRatio="xMidYMid meet" version="1.0"><defs><clipPath id="id1"><path d="M 151.921875 214 L 329 214 L 329 521 L 151.921875 521 Z M 151.921875 214 " clip-rule="nonzero"/></clipPath><clipPath id="id2"><path d="M 651.847656 320.574219 L 410.707031 320.574219 L 410.707031 420.527344 L 549.511719 420.527344 C 536.570312 484.023438 482.460938 520.480469 410.707031 520.480469 C 326.015625 520.480469 257.789062 452.277344 257.789062 367.609375 C 257.789062 282.941406 326.015625 214.738281 410.707031 214.738281 C 447.171875 214.738281 480.109375 227.675781 505.988281 248.839844 L 581.269531 173.582031 C 535.394531 133.601562 476.582031 108.90625 410.707031 108.90625 C 267.199219 108.90625 151.921875 224.148438 151.921875 367.609375 C 151.921875 511.070312 267.199219 626.3125 410.707031 626.3125 C 540.101562 626.3125 657.730469 532.238281 657.730469 367.609375 C 657.730469 352.324219 655.378906 335.859375 651.847656 320.574219 Z M 651.847656 320.574219 " clip-rule="nonzero"/></clipPath><clipPath id="id3"><path d="M 151.921875 108 L 657.730469 108 L 657.730469 368 L 151.921875 368 Z M 151.921875 108 " clip-rule="nonzero"/></clipPath><clipPath id="id4"><path d="M 651.847656 320.574219 L 410.707031 320.574219 L 410.707031 420.527344 L 549.511719 420.527344 C 536.570312 484.023438 482.460938 520.480469 410.707031 520.480469 C 326.015625 520.480469 257.789062 452.277344 257.789062 367.609375 C 257.789062 282.941406 326.015625 214.738281 410.707031 214.738281 C 447.171875 214.738281 480.109375 227.675781 505.988281 248.839844 L 581.269531 173.582031 C 535.394531 133.601562 476.582031 108.90625 410.707031 108.90625 C 267.199219 108.90625 151.921875 224.148438 151.921875 367.609375 C 151.921875 511.070312 267.199219 626.3125 410.707031 626.3125 C 540.101562 626.3125 657.730469 532.238281 657.730469 367.609375 C 657.730469 352.324219 655.378906 335.859375 651.847656 320.574219 Z M 651.847656 320.574219 " clip-rule="nonzero"/></clipPath><clipPath id="id5"><path d="M 151.921875 108 L 657.730469 108 L 657.730469 626.3125 L 151.921875 626.3125 Z M 151.921875 108 " clip-rule="nonzero"/></clipPath><clipPath id="id6"><path d="M 651.847656 320.574219 L 410.707031 320.574219 L 410.707031 420.527344 L 549.511719 420.527344 C 536.570312 484.023438 482.460938 520.480469 410.707031 520.480469 C 326.015625 520.480469 257.789062 452.277344 257.789062 367.609375 C 257.789062 282.941406 326.015625 214.738281 410.707031 214.738281 C 447.171875 214.738281 480.109375 227.675781 505.988281 248.839844 L 581.269531 173.582031 C 535.394531 133.601562 476.582031 108.90625 410.707031 108.90625 C 267.199219 108.90625 151.921875 224.148438 151.921875 367.609375 C 151.921875 511.070312 267.199219 626.3125 410.707031 626.3125 C 540.101562 626.3125 657.730469 532.238281 657.730469 367.609375 C 657.730469 352.324219 655.378906 335.859375 651.847656 320.574219 Z M 651.847656 320.574219 " clip-rule="nonzero"/></clipPath><clipPath id="id7"><path d="M 281 214 L 657.730469 214 L 657.730469 626.3125 L 281 626.3125 Z M 281 214 " clip-rule="nonzero"/></clipPath><clipPath id="id8"><path d="M 651.847656 320.574219 L 410.707031 320.574219 L 410.707031 420.527344 L 549.511719 420.527344 C 536.570312 484.023438 482.460938 520.480469 410.707031 520.480469 C 326.015625 520.480469 257.789062 452.277344 257.789062 367.609375 C 257.789062 282.941406 326.015625 214.738281 410.707031 214.738281 C 447.171875 214.738281 480.109375 227.675781 505.988281 248.839844 L 581.269531 173.582031 C 535.394531 133.601562 476.582031 108.90625 410.707031 108.90625 C 267.199219 108.90625 151.921875 224.148438 151.921875 367.609375 C 151.921875 511.070312 267.199219 626.3125 410.707031 626.3125 C 540.101562 626.3125 657.730469 532.238281 657.730469 367.609375 C 657.730469 352.324219 655.378906 335.859375 651.847656 320.574219 Z M 651.847656 320.574219 " clip-rule="nonzero"/></clipPath></defs><rect x="-81" width="972" fill="#ffffff" y="-80.999999" height="971.999992" fill-opacity="1"/><rect x="-81" width="972" fill="#ffffff" y="-80.999999" height="971.999992" fill-opacity="1"/><rect x="-81" width="972" fill="#ffffff" y="-80.999999" height="971.999992" fill-opacity="1"/><g clip-path="url(#id1)"><g clip-path="url(#id2)"><path fill="#fbbc05" d="M 128.398438 520.480469 L 128.398438 214.738281 L 328.367188 367.609375 Z M 128.398438 520.480469 " fill-opacity="1" fill-rule="nonzero"/></g></g><g clip-path="url(#id3)"><g clip-path="url(#id4)"><path fill="#ea4335" d="M 128.398438 214.738281 L 328.367188 367.609375 L 410.707031 295.878906 L 693.019531 250.019531 L 693.019531 85.390625 L 128.398438 85.390625 Z M 128.398438 214.738281 " fill-opacity="1" fill-rule="nonzero"/></g></g><g clip-path="url(#id5)"><g clip-path="url(#id6)"><path fill="#34a853" d="M 128.398438 520.480469 L 481.285156 250.019531 L 574.214844 261.777344 L 693.019531 85.390625 L 693.019531 649.828125 L 128.398438 649.828125 Z M 128.398438 520.480469 " fill-opacity="1" fill-rule="nonzero"/></g></g><g clip-path="url(#id7)"><g clip-path="url(#id8)"><path fill="#4285f4" d="M 693.019531 649.828125 L 328.367188 367.609375 L 281.316406 332.332031 L 693.019531 214.738281 Z M 693.019531 649.828125 " fill-opacity="1" fill-rule="nonzero"/></g></g></svg>