<svg xmlns="http://www.w3.org/2000/svg" xmlns:xlink="http://www.w3.org/1999/xlink" width="500" zoomAndPan="magnify" viewBox="0 0 375 374.999991" height="500" preserveAspectRatio="xMidYMid meet" version="1.0"><defs><g/><clipPath id="id1"><path d="M 177 141 L 233 141 L 233 196.738281 L 177 196.738281 Z M 177 141 " clip-rule="nonzero"/></clipPath><clipPath id="id2"><path d="M 138 122 L 233 122 L 233 196.738281 L 138 196.738281 Z M 138 122 " clip-rule="nonzero"/></clipPath><clipPath id="id3"><path d="M 101.867188 122 L 159 122 L 159 157 L 101.867188 157 Z M 101.867188 122 " clip-rule="nonzero"/></clipPath><clipPath id="id4"><path d="M 141 140 L 199 140 L 199 196.738281 L 141 196.738281 Z M 141 140 " clip-rule="nonzero"/></clipPath><clipPath id="id5"><path d="M 143 122 L 233.117188 122 L 233.117188 163 L 143 163 Z M 143 122 " clip-rule="nonzero"/></clipPath><clipPath id="id6"><path d="M 177 141 L 233.117188 141 L 233.117188 196.738281 L 177 196.738281 Z M 177 141 " clip-rule="nonzero"/></clipPath></defs><rect x="-37.5" width="450" fill="#ffffff" y="-37.499999" height="449.999989" fill-opacity="1"/><rect x="-37.5" width="450" fill="#ffffff" y="-37.499999" height="449.999989" fill-opacity="1"/><rect x="-37.5" width="450" fill="#ffffff" y="-37.499999" height="449.999989" fill-opacity="1"/><path fill="#2ea5df" d="M 130.28125 155.757812 C 130.230469 155.757812 130.179688 155.753906 130.128906 155.75 C 129.074219 155.6875 128.164062 154.96875 127.863281 153.964844 L 121.421875 132.390625 L 116.726562 142.6875 C 116.320312 143.582031 115.421875 144.160156 114.433594 144.160156 L 104.75 144.160156 C 103.363281 144.160156 102.230469 143.035156 102.230469 141.65625 C 102.230469 140.277344 103.363281 139.152344 104.75 139.152344 L 112.8125 139.152344 L 119.621094 124.210938 C 120.03125 123.316406 120.929688 122.742188 121.917969 122.742188 C 121.972656 122.742188 122.027344 122.742188 122.085938 122.746094 C 123.132812 122.820312 124.03125 123.535156 124.328125 124.53125 L 130.71875 145.933594 L 137.210938 131.035156 C 137.460938 130.460938 137.914062 130 138.488281 129.742188 C 138.75 129.628906 139.023438 129.558594 139.300781 129.53125 C 139.378906 129.527344 139.453125 129.523438 139.527344 129.523438 C 140.371094 129.523438 141.15625 129.945312 141.625 130.648438 L 147.261719 139.152344 L 155.585938 139.152344 C 156.976562 139.152344 158.105469 140.277344 158.105469 141.65625 C 158.105469 143.035156 156.976562 144.160156 155.585938 144.160156 L 145.902344 144.160156 C 145.054688 144.160156 144.269531 143.738281 143.800781 143.035156 L 139.980469 137.273438 L 132.589844 154.246094 C 132.191406 155.164062 131.28125 155.757812 130.28125 155.757812 " fill-opacity="1" fill-rule="nonzero"/><g clip-path="url(#id1)"><path fill="#2ea5df" d="M 205.191406 196.378906 C 201.457031 196.378906 198.421875 193.359375 198.421875 189.644531 L 198.421875 175.710938 L 184.40625 175.710938 C 180.671875 175.710938 177.632812 172.691406 177.632812 168.976562 C 177.632812 165.265625 180.671875 162.246094 184.40625 162.246094 L 198.421875 162.246094 L 198.421875 148.308594 C 198.421875 144.597656 201.457031 141.574219 205.191406 141.574219 C 208.925781 141.574219 211.964844 144.597656 211.964844 148.308594 L 211.964844 162.246094 L 225.980469 162.246094 C 229.714844 162.246094 232.753906 165.265625 232.753906 168.976562 C 232.753906 172.691406 229.714844 175.710938 225.980469 175.710938 L 211.964844 175.710938 L 211.964844 189.644531 C 211.964844 193.359375 208.925781 196.378906 205.191406 196.378906 " fill-opacity="1" fill-rule="nonzero"/></g><g clip-path="url(#id2)"><path fill="#ff4848" d="M 184.40625 162.417969 C 180.765625 162.417969 177.804688 165.359375 177.804688 168.976562 C 177.804688 172.59375 180.765625 175.539062 184.40625 175.539062 L 198.507812 175.539062 C 198.554688 175.539062 198.59375 175.578125 198.59375 175.625 L 198.59375 189.644531 C 198.59375 193.261719 201.554688 196.207031 205.191406 196.207031 C 208.832031 196.207031 211.792969 193.261719 211.792969 189.644531 L 211.792969 175.625 C 211.792969 175.578125 211.832031 175.539062 211.878906 175.539062 L 225.980469 175.539062 C 229.621094 175.539062 232.578125 172.59375 232.578125 168.976562 C 232.578125 165.359375 229.621094 162.417969 225.980469 162.417969 L 211.878906 162.417969 C 211.832031 162.417969 211.792969 162.378906 211.792969 162.332031 L 211.792969 148.308594 C 211.792969 144.691406 208.832031 141.75 205.191406 141.75 C 201.554688 141.75 198.59375 144.691406 198.59375 148.308594 L 198.59375 162.332031 C 198.59375 162.378906 198.554688 162.417969 198.507812 162.417969 Z M 205.191406 196.378906 C 201.457031 196.378906 198.421875 193.359375 198.421875 189.644531 L 198.421875 187.824219 L 191.457031 194.664062 C 190.34375 195.761719 188.855469 196.367188 187.269531 196.367188 C 185.679688 196.367188 184.191406 195.761719 183.074219 194.664062 L 171.671875 183.464844 L 156.148438 168.023438 L 148.238281 160.164062 C 144.074219 156.023438 141.78125 150.519531 141.78125 144.660156 C 141.78125 143.335938 141.902344 142.007812 142.144531 140.710938 L 142.171875 140.574219 L 139.980469 137.273438 L 138.695312 140.226562 L 138.695312 139.792969 L 139.886719 137.058594 C 139.898438 137.027344 139.925781 137.007812 139.960938 137.003906 C 139.996094 137.003906 140.023438 137.019531 140.035156 137.042969 L 143.945312 142.9375 C 144.382812 143.59375 145.113281 143.988281 145.902344 143.988281 L 155.585938 143.988281 C 156.878906 143.988281 157.929688 142.941406 157.929688 141.65625 C 157.929688 140.371094 156.878906 139.324219 155.585938 139.324219 L 147.210938 139.324219 C 147.183594 139.324219 147.15625 139.308594 147.140625 139.285156 L 141.480469 130.746094 C 141.046875 130.089844 140.3125 129.699219 139.519531 129.699219 C 139.453125 129.699219 139.386719 129.699219 139.320312 129.707031 C 139.101562 129.726562 138.894531 129.773438 138.695312 129.847656 L 138.695312 129.664062 C 138.890625 129.59375 139.097656 129.550781 139.300781 129.53125 C 139.378906 129.527344 139.453125 129.523438 139.527344 129.523438 C 140.371094 129.523438 141.15625 129.945312 141.625 130.648438 L 144.234375 134.589844 L 144.515625 134.085938 C 145.511719 132.285156 146.765625 130.628906 148.238281 129.164062 C 152.402344 125.023438 157.941406 122.742188 163.828125 122.742188 C 169.71875 122.742188 175.257812 125.023438 179.421875 129.164062 L 187.265625 136.964844 L 195.113281 129.15625 C 199.273438 125.027344 204.808594 122.75 210.707031 122.75 C 216.601562 122.75 222.136719 125.027344 226.292969 129.15625 L 226.300781 129.167969 L 226.332031 129.199219 C 230.472656 133.335938 232.753906 138.828125 232.753906 144.664062 C 232.753906 150.519531 230.460938 156.023438 226.292969 160.164062 L 224.199219 162.246094 L 225.980469 162.246094 C 229.714844 162.246094 232.753906 165.265625 232.753906 168.976562 C 232.753906 172.691406 229.714844 175.710938 225.980469 175.710938 L 211.964844 175.710938 L 211.964844 189.644531 C 211.964844 193.359375 208.925781 196.378906 205.191406 196.378906 " fill-opacity="1" fill-rule="nonzero"/></g><g clip-path="url(#id3)"><path fill="#ffffff" d="M 155.585938 143.640625 L 145.902344 143.640625 C 145.230469 143.640625 144.605469 143.304688 144.238281 142.75 L 140.328125 136.855469 C 140.242188 136.722656 140.085938 136.648438 139.929688 136.660156 C 139.769531 136.675781 139.628906 136.773438 139.566406 136.921875 L 138.347656 139.722656 L 132.113281 154.039062 C 131.796875 154.765625 131.074219 155.238281 130.28125 155.238281 C 130.238281 155.238281 130.199219 155.234375 130.160156 155.234375 C 129.324219 155.183594 128.601562 154.613281 128.363281 153.816406 L 121.855469 132.019531 C 121.804688 131.847656 121.648438 131.726562 121.46875 131.714844 C 121.460938 131.710938 121.449219 131.710938 121.441406 131.710938 C 121.269531 131.710938 121.113281 131.808594 121.042969 131.964844 L 116.253906 142.476562 C 115.929688 143.183594 115.214844 143.640625 114.433594 143.640625 L 104.75 143.640625 C 103.648438 143.640625 102.753906 142.75 102.753906 141.65625 C 102.753906 140.5625 103.648438 139.671875 104.75 139.671875 L 112.867188 139.671875 C 113.039062 139.671875 113.191406 139.570312 113.261719 139.417969 L 120.097656 124.425781 C 120.441406 123.675781 121.222656 123.210938 122.054688 123.265625 C 122.882812 123.320312 123.59375 123.890625 123.828125 124.679688 L 130.289062 146.3125 C 130.34375 146.484375 130.496094 146.609375 130.679688 146.617188 C 130.859375 146.628906 131.03125 146.523438 131.105469 146.359375 L 137.691406 131.242188 C 137.835938 130.90625 138.0625 130.628906 138.347656 130.421875 C 138.632812 130.214844 138.980469 130.082031 139.347656 130.050781 C 140.085938 129.988281 140.789062 130.328125 141.1875 130.9375 L 146.851562 139.476562 C 146.929688 139.59375 147.066406 139.671875 147.210938 139.671875 L 155.585938 139.671875 C 156.6875 139.671875 157.582031 140.5625 157.582031 141.65625 C 157.582031 142.75 156.6875 143.640625 155.585938 143.640625 Z M 155.585938 138.808594 L 147.449219 138.808594 L 144.753906 134.742188 L 144.210938 133.917969 L 141.914062 130.460938 C 141.335938 129.589844 140.332031 129.097656 139.273438 129.191406 C 138.949219 129.214844 138.636719 129.300781 138.347656 129.429688 C 137.703125 129.714844 137.179688 130.234375 136.894531 130.898438 L 130.78125 144.925781 L 124.664062 124.433594 C 124.324219 123.300781 123.300781 122.484375 122.113281 122.402344 C 122.046875 122.398438 121.980469 122.394531 121.917969 122.394531 C 120.792969 122.394531 119.769531 123.050781 119.304688 124.070312 L 112.585938 138.808594 L 104.75 138.808594 C 103.171875 138.808594 101.886719 140.082031 101.886719 141.65625 C 101.886719 143.226562 103.171875 144.503906 104.75 144.503906 L 114.433594 144.503906 C 115.554688 144.503906 116.582031 143.847656 117.042969 142.832031 L 121.355469 133.378906 L 127.53125 154.0625 C 127.875 155.207031 128.90625 156.023438 130.109375 156.097656 C 130.164062 156.097656 130.222656 156.101562 130.28125 156.101562 C 131.421875 156.101562 132.453125 155.425781 132.910156 154.382812 L 138.347656 141.894531 L 140.046875 137.996094 L 141.804688 140.648438 L 142.507812 141.714844 L 143.511719 143.222656 C 144.042969 144.023438 144.9375 144.503906 145.902344 144.503906 L 155.585938 144.503906 C 157.164062 144.503906 158.453125 143.226562 158.453125 141.65625 C 158.453125 140.082031 157.164062 138.808594 155.585938 138.808594 " fill-opacity="1" fill-rule="nonzero"/></g><g clip-path="url(#id4)"><path fill="#ffffff" d="M 198.8125 187.925781 L 198.074219 188.652344 L 191.703125 194.910156 C 190.480469 196.113281 188.875 196.710938 187.269531 196.710938 C 185.660156 196.710938 184.054688 196.113281 182.832031 194.910156 L 171.425781 183.710938 L 155.902344 168.269531 L 147.996094 160.40625 C 143.761719 156.203125 141.433594 150.609375 141.433594 144.660156 C 141.433594 143.320312 141.558594 141.96875 141.804688 140.648438 C 141.8125 140.59375 141.824219 140.539062 141.835938 140.480469 C 141.867188 140.277344 141.816406 140.269531 142.03125 140.269531 C 142.273438 140.269531 142.582031 140.332031 142.582031 140.570312 L 142.695312 140.554688 C 142.695312 140.582031 142.695312 140.609375 142.6875 140.636719 C 142.621094 140.992188 142.558594 141.351562 142.507812 141.714844 C 142.371094 142.691406 142.300781 143.679688 142.300781 144.660156 C 142.300781 150.378906 144.542969 155.753906 148.609375 159.796875 L 156.515625 167.65625 L 172.042969 183.097656 L 183.441406 194.296875 C 185.550781 196.367188 188.984375 196.367188 191.09375 194.296875 L 198.074219 187.4375 L 198.199219 187.3125 C 198.371094 187.144531 198.460938 187.160156 198.628906 187.328125 C 198.800781 187.5 198.984375 187.757812 198.8125 187.925781 " fill-opacity="1" fill-rule="nonzero"/></g><g clip-path="url(#id5)"><path fill="#ffffff" d="M 233.101562 144.664062 C 233.101562 150.609375 230.769531 156.203125 226.539062 160.40625 L 225.039062 161.898438 L 224.296875 162.636719 C 224.214844 162.71875 224.105469 162.589844 223.992188 162.589844 C 223.882812 162.589844 223.769531 162.71875 223.683594 162.636719 C 223.515625 162.46875 223.515625 162.195312 223.683594 162.023438 L 223.8125 161.898438 L 225.925781 159.796875 C 229.992188 155.757812 232.230469 150.382812 232.230469 144.664062 C 232.230469 138.945312 229.992188 133.570312 225.925781 129.527344 C 225.914062 129.515625 225.902344 129.503906 225.890625 129.492188 C 217.496094 121.183594 203.867188 121.195312 195.484375 129.523438 L 187.570312 137.390625 C 187.402344 137.558594 187.125 137.558594 186.957031 137.390625 L 179.050781 129.527344 C 174.984375 125.484375 169.578125 123.261719 163.828125 123.261719 C 158.082031 123.261719 152.675781 125.484375 148.609375 129.527344 C 147.054688 131.070312 145.761719 132.824219 144.753906 134.742188 C 144.714844 134.8125 144.675781 134.886719 144.640625 134.960938 C 144.527344 135.171875 144.472656 135.003906 144.257812 134.894531 C 144.042969 134.785156 143.753906 134.78125 143.863281 134.566406 C 143.972656 134.351562 144.089844 134.136719 144.210938 133.917969 C 145.222656 132.089844 146.496094 130.410156 147.996094 128.917969 C 152.226562 124.710938 157.847656 122.398438 163.828125 122.398438 C 169.8125 122.398438 175.4375 124.710938 179.664062 128.917969 L 187.265625 136.472656 L 194.867188 128.914062 C 203.601562 120.238281 217.808594 120.238281 226.539062 128.914062 C 226.554688 128.925781 226.566406 128.941406 226.578125 128.953125 C 230.785156 133.15625 233.101562 138.734375 233.101562 144.664062 " fill-opacity="1" fill-rule="nonzero"/></g><g clip-path="url(#id6)"><path fill="#ffffff" d="M 225.980469 175.191406 L 211.878906 175.191406 C 211.640625 175.191406 211.445312 175.386719 211.445312 175.625 L 211.445312 189.644531 C 211.445312 193.070312 208.640625 195.859375 205.191406 195.859375 C 201.746094 195.859375 198.941406 193.070312 198.941406 189.644531 L 198.941406 175.625 C 198.941406 175.386719 198.746094 175.191406 198.507812 175.191406 L 184.40625 175.191406 C 180.960938 175.191406 178.152344 172.40625 178.152344 168.976562 C 178.152344 165.550781 180.960938 162.761719 184.40625 162.761719 L 198.507812 162.761719 C 198.746094 162.761719 198.941406 162.566406 198.941406 162.328125 L 198.941406 148.308594 C 198.941406 144.882812 201.746094 142.09375 205.191406 142.09375 C 208.640625 142.09375 211.445312 144.882812 211.445312 148.308594 L 211.445312 162.328125 C 211.445312 162.566406 211.640625 162.761719 211.878906 162.761719 L 225.980469 162.761719 C 229.425781 162.761719 232.230469 165.550781 232.230469 168.976562 C 232.230469 172.40625 229.425781 175.191406 225.980469 175.191406 Z M 225.980469 161.898438 L 212.3125 161.898438 L 212.3125 148.308594 C 212.3125 144.40625 209.121094 141.230469 205.191406 141.230469 C 201.265625 141.230469 198.074219 144.40625 198.074219 148.308594 L 198.074219 161.898438 L 184.40625 161.898438 C 180.480469 161.898438 177.285156 165.074219 177.285156 168.976562 C 177.285156 172.882812 180.480469 176.058594 184.40625 176.058594 L 198.074219 176.058594 L 198.074219 189.644531 C 198.074219 193.550781 201.265625 196.726562 205.191406 196.726562 C 209.121094 196.726562 212.3125 193.550781 212.3125 189.644531 L 212.3125 176.058594 L 225.980469 176.058594 C 229.90625 176.058594 233.101562 172.882812 233.101562 168.976562 C 233.101562 165.074219 229.90625 161.898438 225.980469 161.898438 " fill-opacity="1" fill-rule="nonzero"/></g><g fill="#000000" fill-opacity="1"><g transform="translate(110.135431, 234.562707)"><g><path d="M 23.65625 0 L 20.5625 0 L 20.53125 -14.875 L 14.25 -2.078125 L 12.0625 -2.078125 L 5.765625 -14.875 L 5.765625 0 L 2.609375 0 L 2.609375 -19.90625 L 6.59375 -19.90625 L 13.171875 -6.6875 L 19.703125 -19.90625 L 23.65625 -19.90625 Z M 23.65625 0 "/></g></g></g><g fill="#000000" fill-opacity="1"><g transform="translate(136.311034, 234.562707)"><g><path d="M 16.828125 -16.890625 L 5.96875 -16.890625 L 5.96875 -11.515625 L 15.703125 -11.515625 L 15.703125 -8.5 L 5.96875 -8.5 L 5.96875 -3.015625 L 17.171875 -3.015625 L 17.171875 0 L 2.609375 0 L 2.609375 -19.90625 L 16.828125 -19.90625 Z M 16.828125 -16.890625 "/></g></g></g><g fill="#000000" fill-opacity="1"><g transform="translate(154.841403, 234.562707)"><g><path d="M 2.609375 -19.90625 L 10.78125 -19.90625 C 13.757812 -19.90625 16.21875 -18.96875 18.15625 -17.09375 C 20.101562 -15.21875 21.078125 -12.835938 21.078125 -9.953125 C 21.078125 -7.066406 20.097656 -4.6875 18.140625 -2.8125 C 16.191406 -0.9375 13.707031 0 10.6875 0 L 2.609375 0 Z M 5.96875 -16.890625 L 5.96875 -3.015625 L 10.859375 -3.015625 C 12.816406 -3.015625 14.441406 -3.660156 15.734375 -4.953125 C 17.035156 -6.253906 17.6875 -7.910156 17.6875 -9.921875 C 17.6875 -11.929688 17.015625 -13.59375 15.671875 -14.90625 C 14.335938 -16.226562 12.6875 -16.890625 10.71875 -16.890625 Z M 5.96875 -16.890625 "/></g></g></g><g fill="#000000" fill-opacity="1"><g transform="translate(176.753856, 234.562707)"><g><path d="M 5.96875 0 L 2.609375 0 L 2.609375 -19.90625 L 5.96875 -19.90625 Z M 5.96875 0 "/></g></g></g><g fill="#000000" fill-opacity="1"><g transform="translate(185.223217, 234.562707)"><g><path d="M 11.4375 -19.984375 C 12.832031 -19.984375 14.195312 -19.710938 15.53125 -19.171875 C 16.875 -18.640625 18.03125 -17.890625 19 -16.921875 L 17.03125 -14.46875 C 16.3125 -15.25 15.457031 -15.863281 14.46875 -16.3125 C 13.488281 -16.769531 12.492188 -17 11.484375 -17 C 9.492188 -17 7.8125 -16.320312 6.4375 -14.96875 C 5.0625 -13.613281 4.375 -11.960938 4.375 -10.015625 C 4.375 -8.035156 5.0625 -6.367188 6.4375 -5.015625 C 7.8125 -3.660156 9.492188 -2.984375 11.484375 -2.984375 C 13.554688 -2.984375 15.40625 -3.769531 17.03125 -5.34375 L 19.03125 -3.125 C 18 -2.125 16.800781 -1.328125 15.4375 -0.734375 C 14.070312 -0.148438 12.695312 0.140625 11.3125 0.140625 C 8.394531 0.140625 5.941406 -0.828125 3.953125 -2.765625 C 1.960938 -4.710938 0.96875 -7.117188 0.96875 -9.984375 C 0.96875 -12.804688 1.976562 -15.175781 4 -17.09375 C 6.019531 -19.019531 8.5 -19.984375 11.4375 -19.984375 Z M 11.4375 -19.984375 "/></g></g></g><g fill="#000000" fill-opacity="1"><g transform="translate(204.91885, 234.562707)"><g><path d="M 15.46875 -4.5 L 5.4375 -4.5 L 3.53125 0 L 0.03125 0 L 8.8125 -19.90625 L 12.25 -19.90625 L 20.953125 0 L 17.375 0 Z M 14.1875 -7.484375 L 10.4375 -16.328125 L 6.6875 -7.484375 Z M 14.1875 -7.484375 "/></g></g></g><g fill="#000000" fill-opacity="1"><g transform="translate(225.779743, 234.562707)"><g><path d="M 15.25 0 L 11.609375 -6.03125 C 11.410156 -6.007812 11.101562 -6 10.6875 -6 L 5.96875 -6 L 5.96875 0 L 2.609375 0 L 2.609375 -19.90625 L 10.6875 -19.90625 C 13.226562 -19.90625 15.203125 -19.3125 16.609375 -18.125 C 18.015625 -16.945312 18.71875 -15.273438 18.71875 -13.109375 C 18.71875 -11.515625 18.359375 -10.164062 17.640625 -9.0625 C 16.929688 -7.96875 15.914062 -7.164062 14.59375 -6.65625 L 19.046875 0 Z M 5.96875 -9.015625 L 10.6875 -9.015625 C 13.914062 -9.015625 15.53125 -10.351562 15.53125 -13.03125 C 15.53125 -15.601562 13.914062 -16.890625 10.6875 -16.890625 L 5.96875 -16.890625 Z M 5.96875 -9.015625 "/></g></g></g><g fill="#000000" fill-opacity="1"><g transform="translate(246.214312, 234.562707)"><g><path d="M 16.828125 -16.890625 L 5.96875 -16.890625 L 5.96875 -11.515625 L 15.703125 -11.515625 L 15.703125 -8.5 L 5.96875 -8.5 L 5.96875 -3.015625 L 17.171875 -3.015625 L 17.171875 0 L 2.609375 0 L 2.609375 -19.90625 L 16.828125 -19.90625 Z M 16.828125 -16.890625 "/></g></g></g><g fill="#000000" fill-opacity="1"><g transform="translate(75.666186, 251.90145)"><g><path d="M 8.015625 0 L 6.65625 0 L 6.65625 -3.328125 L 2.40625 -3.328125 L 2.40625 0 L 1.0625 0 L 1.0625 -8.03125 L 2.40625 -8.03125 L 2.40625 -4.546875 L 6.65625 -4.546875 L 6.65625 -8.03125 L 8.015625 -8.03125 Z M 8.015625 0 "/></g></g></g><g fill="#000000" fill-opacity="1"><g transform="translate(84.735512, 251.90145)"><g><path d="M 6.796875 -6.8125 L 2.40625 -6.8125 L 2.40625 -4.640625 L 6.328125 -4.640625 L 6.328125 -3.421875 L 2.40625 -3.421875 L 2.40625 -1.21875 L 6.921875 -1.21875 L 6.921875 0 L 1.0625 0 L 1.0625 -8.03125 L 6.796875 -8.03125 Z M 6.796875 -6.8125 "/></g></g></g><g fill="#000000" fill-opacity="1"><g transform="translate(92.256979, 251.90145)"><g><path d="M 6.234375 -1.8125 L 2.1875 -1.8125 L 1.421875 0 L 0.015625 0 L 3.5625 -8.03125 L 4.9375 -8.03125 L 8.453125 0 L 7 0 Z M 5.71875 -3.015625 L 4.203125 -6.578125 L 2.6875 -3.015625 Z M 5.71875 -3.015625 "/></g></g></g><g fill="#000000" fill-opacity="1"><g transform="translate(100.718623, 251.90145)"><g><path d="M 6.140625 0 L 4.671875 -2.4375 C 4.597656 -2.425781 4.476562 -2.421875 4.3125 -2.421875 L 2.40625 -2.421875 L 2.40625 0 L 1.0625 0 L 1.0625 -8.03125 L 4.3125 -8.03125 C 5.332031 -8.03125 6.125 -7.789062 6.6875 -7.3125 C 7.257812 -6.832031 7.546875 -6.15625 7.546875 -5.28125 C 7.546875 -4.644531 7.398438 -4.101562 7.109375 -3.65625 C 6.828125 -3.21875 6.421875 -2.894531 5.890625 -2.6875 L 7.6875 0 Z M 2.40625 -3.640625 L 4.3125 -3.640625 C 5.613281 -3.640625 6.265625 -4.175781 6.265625 -5.25 C 6.265625 -6.289062 5.613281 -6.8125 4.3125 -6.8125 L 2.40625 -6.8125 Z M 2.40625 -3.640625 "/></g></g></g><g fill="#000000" fill-opacity="1"><g transform="translate(109.008283, 251.90145)"><g><path d="M 6.53125 -6.8125 L 3.984375 -6.8125 L 3.984375 0 L 2.640625 0 L 2.640625 -6.8125 L 0.109375 -6.8125 L 0.109375 -8.03125 L 6.53125 -8.03125 Z M 6.53125 -6.8125 "/></g></g></g><g fill="#000000" fill-opacity="1"><g transform="translate(115.646883, 251.90145)"><g/></g></g><g fill="#000000" fill-opacity="1"><g transform="translate(118.60502, 251.90145)"><g><path d="M 6.234375 -1.8125 L 2.1875 -1.8125 L 1.421875 0 L 0.015625 0 L 3.5625 -8.03125 L 4.9375 -8.03125 L 8.453125 0 L 7 0 Z M 5.71875 -3.015625 L 4.203125 -6.578125 L 2.6875 -3.015625 Z M 5.71875 -3.015625 "/></g></g></g><g fill="#000000" fill-opacity="1"><g transform="translate(127.066664, 251.90145)"><g><path d="M 8.015625 0 L 6.6875 0 L 2.40625 -5.75 L 2.40625 0 L 1.0625 0 L 1.0625 -8.03125 L 2.390625 -8.03125 L 6.6875 -2.265625 L 6.6875 -8.03125 L 8.015625 -8.03125 Z M 8.015625 0 "/></g></g></g><g fill="#000000" fill-opacity="1"><g transform="translate(136.147448, 251.90145)"><g><path d="M 1.0625 -8.03125 L 4.34375 -8.03125 C 5.539062 -8.03125 6.53125 -7.648438 7.3125 -6.890625 C 8.101562 -6.128906 8.5 -5.164062 8.5 -4 C 8.5 -2.84375 8.101562 -1.882812 7.3125 -1.125 C 6.53125 -0.375 5.53125 0 4.3125 0 L 1.0625 0 Z M 2.40625 -6.8125 L 2.40625 -1.21875 L 4.375 -1.21875 C 5.164062 -1.21875 5.820312 -1.476562 6.34375 -2 C 6.875 -2.519531 7.140625 -3.1875 7.140625 -4 C 7.140625 -4.8125 6.867188 -5.484375 6.328125 -6.015625 C 5.785156 -6.546875 5.117188 -6.8125 4.328125 -6.8125 Z M 2.40625 -6.8125 "/></g></g></g><g fill="#000000" fill-opacity="1"><g transform="translate(145.033316, 251.90145)"><g/></g></g><g fill="#000000" fill-opacity="1"><g transform="translate(147.991453, 251.90145)"><g><path d="M 8.015625 0 L 6.65625 0 L 6.65625 -3.328125 L 2.40625 -3.328125 L 2.40625 0 L 1.0625 0 L 1.0625 -8.03125 L 2.40625 -8.03125 L 2.40625 -4.546875 L 6.65625 -4.546875 L 6.65625 -8.03125 L 8.015625 -8.03125 Z M 8.015625 0 "/></g></g></g><g fill="#000000" fill-opacity="1"><g transform="translate(157.060778, 251.90145)"><g><path d="M 6.796875 -6.8125 L 2.40625 -6.8125 L 2.40625 -4.640625 L 6.328125 -4.640625 L 6.328125 -3.421875 L 2.40625 -3.421875 L 2.40625 -1.21875 L 6.921875 -1.21875 L 6.921875 0 L 1.0625 0 L 1.0625 -8.03125 L 6.796875 -8.03125 Z M 6.796875 -6.8125 "/></g></g></g><g fill="#000000" fill-opacity="1"><g transform="translate(164.582245, 251.90145)"><g><path d="M 6.234375 -1.8125 L 2.1875 -1.8125 L 1.421875 0 L 0.015625 0 L 3.5625 -8.03125 L 4.9375 -8.03125 L 8.453125 0 L 7 0 Z M 5.71875 -3.015625 L 4.203125 -6.578125 L 2.6875 -3.015625 Z M 5.71875 -3.015625 "/></g></g></g><g fill="#000000" fill-opacity="1"><g transform="translate(173.043889, 251.90145)"><g><path d="M 6.140625 0 L 4.671875 -2.4375 C 4.597656 -2.425781 4.476562 -2.421875 4.3125 -2.421875 L 2.40625 -2.421875 L 2.40625 0 L 1.0625 0 L 1.0625 -8.03125 L 4.3125 -8.03125 C 5.332031 -8.03125 6.125 -7.789062 6.6875 -7.3125 C 7.257812 -6.832031 7.546875 -6.15625 7.546875 -5.28125 C 7.546875 -4.644531 7.398438 -4.101562 7.109375 -3.65625 C 6.828125 -3.21875 6.421875 -2.894531 5.890625 -2.6875 L 7.6875 0 Z M 2.40625 -3.640625 L 4.3125 -3.640625 C 5.613281 -3.640625 6.265625 -4.175781 6.265625 -5.25 C 6.265625 -6.289062 5.613281 -6.8125 4.3125 -6.8125 L 2.40625 -6.8125 Z M 2.40625 -3.640625 "/></g></g></g><g fill="#000000" fill-opacity="1"><g transform="translate(181.333549, 251.90145)"><g><path d="M 6.53125 -6.8125 L 3.984375 -6.8125 L 3.984375 0 L 2.640625 0 L 2.640625 -6.8125 L 0.109375 -6.8125 L 0.109375 -8.03125 L 6.53125 -8.03125 Z M 6.53125 -6.8125 "/></g></g></g><g fill="#000000" fill-opacity="1"><g transform="translate(187.97215, 251.90145)"><g><path d="M 1.0625 -8.03125 L 4.546875 -8.03125 C 5.378906 -8.03125 6.035156 -7.851562 6.515625 -7.5 C 6.992188 -7.144531 7.234375 -6.648438 7.234375 -6.015625 C 7.234375 -5.566406 7.109375 -5.179688 6.859375 -4.859375 C 6.609375 -4.546875 6.265625 -4.335938 5.828125 -4.234375 C 6.359375 -4.140625 6.773438 -3.910156 7.078125 -3.546875 C 7.390625 -3.191406 7.546875 -2.742188 7.546875 -2.203125 C 7.546875 -1.515625 7.285156 -0.972656 6.765625 -0.578125 C 6.242188 -0.191406 5.53125 0 4.625 0 L 1.0625 0 Z M 2.40625 -6.828125 L 2.40625 -4.703125 L 4.46875 -4.703125 C 4.894531 -4.703125 5.226562 -4.796875 5.46875 -4.984375 C 5.71875 -5.179688 5.84375 -5.445312 5.84375 -5.78125 C 5.84375 -6.113281 5.722656 -6.367188 5.484375 -6.546875 C 5.242188 -6.734375 4.90625 -6.828125 4.46875 -6.828125 Z M 2.40625 -3.515625 L 2.40625 -1.203125 L 4.46875 -1.203125 C 5.007812 -1.203125 5.425781 -1.300781 5.71875 -1.5 C 6.007812 -1.707031 6.15625 -2 6.15625 -2.375 C 6.15625 -2.726562 6.003906 -3.003906 5.703125 -3.203125 C 5.410156 -3.410156 5 -3.515625 4.46875 -3.515625 Z M 2.40625 -3.515625 "/></g></g></g><g fill="#000000" fill-opacity="1"><g transform="translate(196.066893, 251.90145)"><g><path d="M 6.796875 -6.8125 L 2.40625 -6.8125 L 2.40625 -4.640625 L 6.328125 -4.640625 L 6.328125 -3.421875 L 2.40625 -3.421875 L 2.40625 -1.21875 L 6.921875 -1.21875 L 6.921875 0 L 1.0625 0 L 1.0625 -8.03125 L 6.796875 -8.03125 Z M 6.796875 -6.8125 "/></g></g></g><g fill="#000000" fill-opacity="1"><g transform="translate(203.58836, 251.90145)"><g><path d="M 6.234375 -1.8125 L 2.1875 -1.8125 L 1.421875 0 L 0.015625 0 L 3.5625 -8.03125 L 4.9375 -8.03125 L 8.453125 0 L 7 0 Z M 5.71875 -3.015625 L 4.203125 -6.578125 L 2.6875 -3.015625 Z M 5.71875 -3.015625 "/></g></g></g><g fill="#000000" fill-opacity="1"><g transform="translate(212.050004, 251.90145)"><g><path d="M 6.53125 -6.8125 L 3.984375 -6.8125 L 3.984375 0 L 2.640625 0 L 2.640625 -6.8125 L 0.109375 -6.8125 L 0.109375 -8.03125 L 6.53125 -8.03125 Z M 6.53125 -6.8125 "/></g></g></g><g fill="#000000" fill-opacity="1"><g transform="translate(218.688605, 251.90145)"><g/></g></g><g fill="#000000" fill-opacity="1"><g transform="translate(221.646742, 251.90145)"><g><path d="M 4.609375 -8.0625 C 5.171875 -8.0625 5.722656 -7.953125 6.265625 -7.734375 C 6.804688 -7.515625 7.269531 -7.210938 7.65625 -6.828125 L 6.875 -5.84375 C 6.582031 -6.15625 6.234375 -6.398438 5.828125 -6.578125 C 5.429688 -6.765625 5.035156 -6.859375 4.640625 -6.859375 C 3.828125 -6.859375 3.144531 -6.582031 2.59375 -6.03125 C 2.039062 -5.488281 1.765625 -4.820312 1.765625 -4.03125 C 1.765625 -3.238281 2.039062 -2.566406 2.59375 -2.015625 C 3.144531 -1.472656 3.828125 -1.203125 4.640625 -1.203125 C 5.472656 -1.203125 6.21875 -1.519531 6.875 -2.15625 L 7.671875 -1.265625 C 7.253906 -0.859375 6.769531 -0.535156 6.21875 -0.296875 C 5.675781 -0.0546875 5.125 0.0625 4.5625 0.0625 C 3.382812 0.0625 2.394531 -0.328125 1.59375 -1.109375 C 0.789062 -1.898438 0.390625 -2.875 0.390625 -4.03125 C 0.390625 -5.164062 0.796875 -6.117188 1.609375 -6.890625 C 2.421875 -7.671875 3.421875 -8.0625 4.609375 -8.0625 Z M 4.609375 -8.0625 "/></g></g></g><g fill="#000000" fill-opacity="1"><g transform="translate(229.638297, 251.90145)"><g><path d="M 6.234375 -1.8125 L 2.1875 -1.8125 L 1.421875 0 L 0.015625 0 L 3.5625 -8.03125 L 4.9375 -8.03125 L 8.453125 0 L 7 0 Z M 5.71875 -3.015625 L 4.203125 -6.578125 L 2.6875 -3.015625 Z M 5.71875 -3.015625 "/></g></g></g><g fill="#000000" fill-opacity="1"><g transform="translate(238.099941, 251.90145)"><g><path d="M 6.140625 0 L 4.671875 -2.4375 C 4.597656 -2.425781 4.476562 -2.421875 4.3125 -2.421875 L 2.40625 -2.421875 L 2.40625 0 L 1.0625 0 L 1.0625 -8.03125 L 4.3125 -8.03125 C 5.332031 -8.03125 6.125 -7.789062 6.6875 -7.3125 C 7.257812 -6.832031 7.546875 -6.15625 7.546875 -5.28125 C 7.546875 -4.644531 7.398438 -4.101562 7.109375 -3.65625 C 6.828125 -3.21875 6.421875 -2.894531 5.890625 -2.6875 L 7.6875 0 Z M 2.40625 -3.640625 L 4.3125 -3.640625 C 5.613281 -3.640625 6.265625 -4.175781 6.265625 -5.25 C 6.265625 -6.289062 5.613281 -6.8125 4.3125 -6.8125 L 2.40625 -6.8125 Z M 2.40625 -3.640625 "/></g></g></g><g fill="#000000" fill-opacity="1"><g transform="translate(246.389601, 251.90145)"><g><path d="M 1.0625 -8.03125 L 4.34375 -8.03125 C 5.539062 -8.03125 6.53125 -7.648438 7.3125 -6.890625 C 8.101562 -6.128906 8.5 -5.164062 8.5 -4 C 8.5 -2.84375 8.101562 -1.882812 7.3125 -1.125 C 6.53125 -0.375 5.53125 0 4.3125 0 L 1.0625 0 Z M 2.40625 -6.8125 L 2.40625 -1.21875 L 4.375 -1.21875 C 5.164062 -1.21875 5.820312 -1.476562 6.34375 -2 C 6.875 -2.519531 7.140625 -3.1875 7.140625 -4 C 7.140625 -4.8125 6.867188 -5.484375 6.328125 -6.015625 C 5.785156 -6.546875 5.117188 -6.8125 4.328125 -6.8125 Z M 2.40625 -6.8125 "/></g></g></g><g fill="#000000" fill-opacity="1"><g transform="translate(255.275469, 251.90145)"><g><path d="M 2.40625 0 L 1.0625 0 L 1.0625 -8.03125 L 2.40625 -8.03125 Z M 2.40625 0 "/></g></g></g><g fill="#000000" fill-opacity="1"><g transform="translate(258.738099, 251.90145)"><g><path d="M 1.609375 -6.890625 C 2.429688 -7.671875 3.441406 -8.0625 4.640625 -8.0625 C 5.847656 -8.0625 6.859375 -7.671875 7.671875 -6.890625 C 8.492188 -6.117188 8.90625 -5.160156 8.90625 -4.015625 C 8.90625 -2.867188 8.492188 -1.898438 7.671875 -1.109375 C 6.859375 -0.328125 5.847656 0.0625 4.640625 0.0625 C 3.441406 0.0625 2.429688 -0.328125 1.609375 -1.109375 C 0.796875 -1.898438 0.390625 -2.867188 0.390625 -4.015625 C 0.390625 -5.160156 0.796875 -6.117188 1.609375 -6.890625 Z M 4.65625 -6.84375 C 3.863281 -6.84375 3.179688 -6.566406 2.609375 -6.015625 C 2.046875 -5.472656 1.765625 -4.804688 1.765625 -4.015625 C 1.765625 -3.222656 2.046875 -2.546875 2.609375 -1.984375 C 3.179688 -1.429688 3.863281 -1.15625 4.65625 -1.15625 C 5.445312 -1.15625 6.117188 -1.429688 6.671875 -1.984375 C 7.234375 -2.546875 7.515625 -3.222656 7.515625 -4.015625 C 7.515625 -4.804688 7.234375 -5.472656 6.671875 -6.015625 C 6.117188 -6.566406 5.445312 -6.84375 4.65625 -6.84375 Z M 4.65625 -6.84375 "/></g></g></g><g fill="#000000" fill-opacity="1"><g transform="translate(268.025272, 251.90145)"><g><path d="M 2.40625 -1.234375 L 5.890625 -1.234375 L 5.890625 0 L 1.0625 0 L 1.0625 -8.03125 L 2.40625 -8.03125 Z M 2.40625 -1.234375 "/></g></g></g><g fill="#000000" fill-opacity="1"><g transform="translate(274.14792, 251.90145)"><g><path d="M 1.609375 -6.890625 C 2.429688 -7.671875 3.441406 -8.0625 4.640625 -8.0625 C 5.847656 -8.0625 6.859375 -7.671875 7.671875 -6.890625 C 8.492188 -6.117188 8.90625 -5.160156 8.90625 -4.015625 C 8.90625 -2.867188 8.492188 -1.898438 7.671875 -1.109375 C 6.859375 -0.328125 5.847656 0.0625 4.640625 0.0625 C 3.441406 0.0625 2.429688 -0.328125 1.609375 -1.109375 C 0.796875 -1.898438 0.390625 -2.867188 0.390625 -4.015625 C 0.390625 -5.160156 0.796875 -6.117188 1.609375 -6.890625 Z M 4.65625 -6.84375 C 3.863281 -6.84375 3.179688 -6.566406 2.609375 -6.015625 C 2.046875 -5.472656 1.765625 -4.804688 1.765625 -4.015625 C 1.765625 -3.222656 2.046875 -2.546875 2.609375 -1.984375 C 3.179688 -1.429688 3.863281 -1.15625 4.65625 -1.15625 C 5.445312 -1.15625 6.117188 -1.429688 6.671875 -1.984375 C 7.234375 -2.546875 7.515625 -3.222656 7.515625 -4.015625 C 7.515625 -4.804688 7.234375 -5.472656 6.671875 -6.015625 C 6.117188 -6.566406 5.445312 -6.84375 4.65625 -6.84375 Z M 4.65625 -6.84375 "/></g></g></g><g fill="#000000" fill-opacity="1"><g transform="translate(283.435094, 251.90145)"><g><path d="M 6.546875 -3.9375 L 7.734375 -3.9375 L 7.734375 -0.984375 C 7.316406 -0.671875 6.828125 -0.414062 6.265625 -0.21875 C 5.703125 -0.03125 5.148438 0.0625 4.609375 0.0625 C 3.421875 0.0625 2.421875 -0.328125 1.609375 -1.109375 C 0.796875 -1.898438 0.390625 -2.867188 0.390625 -4.015625 C 0.390625 -5.160156 0.800781 -6.117188 1.625 -6.890625 C 2.445312 -7.671875 3.46875 -8.0625 4.6875 -8.0625 C 5.257812 -8.0625 5.816406 -7.957031 6.359375 -7.75 C 6.898438 -7.550781 7.375 -7.28125 7.78125 -6.9375 L 7 -5.9375 C 6.34375 -6.550781 5.570312 -6.859375 4.6875 -6.859375 C 3.875 -6.859375 3.179688 -6.582031 2.609375 -6.03125 C 2.046875 -5.476562 1.765625 -4.804688 1.765625 -4.015625 C 1.765625 -3.210938 2.046875 -2.535156 2.609375 -1.984375 C 3.179688 -1.429688 3.878906 -1.15625 4.703125 -1.15625 C 5.316406 -1.15625 5.929688 -1.335938 6.546875 -1.703125 Z M 6.546875 -3.9375 "/></g></g></g><g fill="#000000" fill-opacity="1"><g transform="translate(292.022858, 251.90145)"><g><path d="M 4.34375 -2.671875 L 4.34375 0 L 3 0 L 3 -2.625 L 0.015625 -8.03125 L 1.375 -8.03125 L 3.671875 -4.125 L 5.921875 -8.03125 L 7.296875 -8.03125 Z M 4.34375 -2.671875 "/></g></g></g></svg>