<svg xmlns="http://www.w3.org/2000/svg" xmlns:xlink="http://www.w3.org/1999/xlink" width="1920" zoomAndPan="magnify" viewBox="0 0 1440 809.999993" height="1080" preserveAspectRatio="xMidYMid meet" version="1.0"><defs><clipPath id="id1"><path d="M 0 0 L 1358.734375 0 L 1358.734375 729.15625 L 0 729.15625 Z M 0 0 " clip-rule="nonzero"/></clipPath><clipPath id="id2"><path d="M 1296.035156 0 L 1440 0 L 1440 365.636719 L 1296.035156 365.636719 Z M 1296.035156 0 " clip-rule="nonzero"/></clipPath><clipPath id="id3"><path d="M 0 619.605469 L 342.84375 619.605469 L 342.84375 810 L 0 810 Z M 0 619.605469 " clip-rule="nonzero"/></clipPath></defs><rect x="-144" width="1728" fill="#ffffff" y="-80.999999" height="971.999992" fill-opacity="1"/><rect x="-144" width="1728" fill="#ffffff" y="-80.999999" height="971.999992" fill-opacity="1"/><rect x="-144" width="1728" fill="#fbfbf5" y="-80.999999" height="971.999992" fill-opacity="1"/><g clip-path="url(#id1)"><path fill="#01949a" d="M 1354.335938 -115.34375 L -59.511719 -115.34375 L -59.511719 729.15625 L 1358.734375 729.15625 L 1358.734375 -115.34375 L 1354.335938 -115.34375 M 1354.335938 724.757812 L -55.0625 724.757812 L -55.0625 -110.894531 L 1354.335938 -110.894531 L 1354.335938 724.757812 " fill-opacity="1" fill-rule="nonzero"/></g><g clip-path="url(#id2)"><path fill="#cd0046" d="M 1296.035156 -79.863281 L 1490.285156 -79.863281 L 1490.285156 365.636719 L 1296.035156 365.636719 Z M 1296.035156 -79.863281 " fill-opacity="1" fill-rule="nonzero"/></g><g clip-path="url(#id3)"><path fill="#01949a" d="M -74.15625 619.605469 L 342.84375 619.605469 L 342.84375 894.105469 L -74.15625 894.105469 Z M -74.15625 619.605469 " fill-opacity="1" fill-rule="nonzero"/></g></svg>