<svg xmlns="http://www.w3.org/2000/svg" xmlns:xlink="http://www.w3.org/1999/xlink" width="559" zoomAndPan="magnify" viewBox="0 0 419.25 297.749993" height="396" preserveAspectRatio="xMidYMid meet" version="1.0"><defs><g/><clipPath id="id1"><path d="M 0 0.140625 L 418.5 0.140625 L 418.5 297.359375 L 0 297.359375 Z M 0 0.140625 " clip-rule="nonzero"/></clipPath><clipPath id="id2"><path d="M 339.046875 178.40625 L 418.5 178.40625 L 418.5 297.359375 L 339.046875 297.359375 Z M 339.046875 178.40625 " clip-rule="nonzero"/></clipPath><clipPath id="id3"><path d="M 0 0.140625 L 107 0.140625 L 107 81.957031 L 0 81.957031 Z M 0 0.140625 " clip-rule="nonzero"/></clipPath><clipPath id="id4"><path d="M 67 51 L 92 51 L 92 81.957031 L 67 81.957031 Z M 67 51 " clip-rule="nonzero"/></clipPath><clipPath id="id5"><path d="M 7 0.140625 L 107 0.140625 L 107 74 L 7 74 Z M 7 0.140625 " clip-rule="nonzero"/></clipPath></defs><g clip-path="url(#id1)"><path fill="#ffffff" d="M 0 0.140625 L 419.25 0.140625 L 419.25 304.097656 L 0 304.097656 Z M 0 0.140625 " fill-opacity="1" fill-rule="nonzero"/><path fill="#ffffff" d="M 0 0.140625 L 418.5 0.140625 L 418.5 297.359375 L 0 297.359375 Z M 0 0.140625 " fill-opacity="1" fill-rule="nonzero"/><path fill="#dbe8cd" d="M 0 0.140625 L 418.5 0.140625 L 418.5 297.359375 L 0 297.359375 Z M 0 0.140625 " fill-opacity="1" fill-rule="nonzero"/></g><g clip-path="url(#id2)"><path fill="#7a8b68" d="M 343.441406 297.4375 C 341.15625 293.777344 339.074219 289.78125 340.113281 285.453125 C 340.945312 281.957031 344.484375 279.292969 347.8125 276.960938 C 350.722656 275.128906 353.84375 273.464844 357.171875 272.464844 C 361.125 271.132812 364.867188 270.46875 368.613281 268.800781 C 373.605469 266.640625 378.179688 263.808594 382.757812 260.976562 C 386.085938 258.8125 390.035156 256.648438 392.742188 253.988281 C 395.652344 251.15625 396.902344 247.324219 398.148438 243.832031 C 399.398438 239.835938 400.644531 235.339844 400.4375 231.011719 C 400.4375 228.679688 399.1875 226.515625 398.355469 224.183594 C 397.109375 221.355469 396.484375 218.359375 395.859375 215.527344 C 395.445312 212.695312 394.613281 210.035156 394.195312 207.203125 C 393.78125 204.707031 394.195312 202.042969 394.820312 199.542969 C 395.652344 196.882812 396.484375 194.050781 397.941406 191.71875 C 399.1875 189.890625 400.851562 188.222656 402.515625 186.558594 C 403.972656 185.226562 405.429688 183.5625 406.882812 182.230469 C 408.132812 181.398438 409.589844 180.730469 411.042969 180.230469 C 413.75 179.398438 416.246094 178.402344 419.15625 178.402344 L 419.15625 297.4375 Z M 343.441406 297.4375 " fill-opacity="1" fill-rule="nonzero"/></g><g clip-path="url(#id3)"><path fill="#7a8b68" d="M 20.683594 26.824219 C 19.433594 31.828125 18.921875 36.902344 19.148438 42.050781 C 19.371094 47.203125 20.324219 52.214844 22.003906 57.089844 C 22.867188 59.566406 24.105469 64.183594 26.292969 65.8125 C 28.242188 67.253906 30.304688 65.488281 30.515625 63.441406 C 30.679688 61.808594 30.105469 59.957031 29.84375 58.359375 C 29.484375 56.21875 29.109375 54.078125 28.71875 51.945312 C 27.484375 45.15625 26.078125 38.394531 24.5 31.664062 C 27.542969 35.300781 30.789062 38.746094 34.242188 42.003906 C 35.585938 43.269531 36.960938 44.503906 38.339844 45.714844 C 38.304688 45.824219 38.28125 45.9375 38.273438 46.050781 C 37.917969 52.0625 38.703125 57.917969 40.628906 63.621094 C 41.53125 66.421875 42.757812 69.074219 44.316406 71.570312 C 45.542969 73.46875 47.507812 76.066406 49.925781 76.433594 C 56.207031 77.394531 52.078125 67.382812 51.113281 64.882812 C 49.371094 60.390625 47.179688 56.085938 45.511719 51.570312 C 48.9375 54.207031 52.449219 56.722656 56.050781 59.117188 C 58.78125 60.9375 61.589844 62.859375 64.503906 64.625 C 64.496094 64.878906 64.566406 65.109375 64.714844 65.3125 C 64.765625 65.390625 64.8125 65.472656 64.867188 65.550781 C 64.421875 71.429688 63.941406 79.800781 70.652344 81.789062 C 70.921875 81.851562 71.183594 81.824219 71.4375 81.714844 C 71.691406 81.601562 71.886719 81.429688 72.023438 81.191406 C 73.636719 78.78125 72.273438 75.46875 71.402344 73.019531 C 70.660156 70.921875 69.742188 68.902344 68.644531 66.96875 C 72.355469 68.890625 76.238281 70.390625 80.335938 70.972656 C 80.472656 70.992188 80.609375 70.992188 80.746094 70.972656 C 80.96875 71.203125 81.242188 71.3125 81.566406 71.289062 C 83.882812 72.65625 86.480469 72.925781 89.058594 73.621094 C 91.492188 74.300781 93.734375 75.488281 96.097656 76.363281 C 98.933594 77.417969 105.085938 78.859375 106.472656 74.894531 C 107.890625 70.839844 100.457031 69.417969 97.898438 68.941406 C 92.695312 67.96875 87.359375 68.335938 82.121094 68.777344 C 81.890625 68.691406 81.65625 68.691406 81.425781 68.777344 C 81.265625 68.667969 81.09375 68.601562 80.902344 68.578125 C 77.421875 68.027344 74.113281 66.964844 70.96875 65.386719 C 75.472656 64.011719 80.167969 62.726562 84.277344 60.445312 C 86.554688 59.226562 88.503906 57.609375 90.113281 55.59375 C 90.886719 54.589844 92.289062 52.964844 91.589844 51.589844 C 89.835938 48.140625 83.261719 52.527344 81.371094 53.472656 C 76.019531 56.144531 70.785156 59.054688 65.671875 62.152344 C 65.585938 62.207031 65.503906 62.269531 65.433594 62.34375 C 62.605469 60.617188 59.882812 58.746094 57.238281 56.976562 C 53.390625 54.40625 49.625 51.707031 45.988281 48.851562 C 52.363281 49.941406 58.796875 50.8125 65.238281 51.277344 C 68.011719 51.480469 82.265625 51.96875 79.710938 45.890625 C 78.621094 43.296875 74.75 43.027344 72.425781 42.75 C 68.871094 42.363281 65.308594 42.28125 61.738281 42.507812 C 54.246094 42.886719 46.785156 43.953125 39.28125 43.269531 C 38.160156 42.277344 37.046875 41.277344 35.957031 40.25 C 31.535156 36.074219 27.46875 31.582031 23.753906 26.769531 C 31.539062 29.867188 39.359375 33.242188 47.386719 35.726562 C 51.175781 36.902344 55.105469 37.746094 59.082031 37.796875 C 61.328125 37.824219 65.226562 37.859375 65.570312 34.84375 C 65.851562 32.242188 62.945312 30.9375 60.953125 30.195312 C 56.675781 28.625 52.304688 27.386719 47.84375 26.476562 C 39.078125 24.648438 30.140625 23.84375 21.238281 23.039062 C 21.160156 23.03125 21.085938 23.03125 21.007812 23.039062 C 19.914062 21.492188 18.871094 19.914062 17.871094 18.304688 C 16.980469 16.863281 16.132812 15.398438 15.320312 13.917969 C 16.75 14.367188 18.1875 14.777344 19.632812 15.144531 C 26.492188 16.9375 33.519531 18.003906 40.550781 18.96875 C 45.121094 19.609375 49.695312 20.230469 54.238281 21.039062 C 58.476562 21.792969 62.582031 23 66.785156 23.898438 C 69.480469 24.472656 72.589844 24.023438 73.917969 21.289062 C 75.242188 18.554688 73.097656 16.386719 70.722656 15.230469 C 62.808594 11.414062 53.28125 11.890625 44.714844 11.644531 C 39.519531 11.492188 34.316406 11.398438 29.117188 11.515625 C 26.605469 11.574219 24.085938 11.707031 21.582031 11.660156 C 18.847656 11.664062 16.171875 11.28125 13.546875 10.515625 C 12.875 9.191406 12.285156 7.851562 11.675781 6.460938 L 15.59375 5.828125 L 24.378906 6.644531 L 38.75 7.988281 L 46.507812 8.71875 C 48.464844 8.898438 50.535156 9.320312 52.496094 9.003906 C 54.886719 8.613281 57.027344 6.402344 55.363281 4.019531 C 53.625 1.523438 49.351562 1.429688 46.660156 1.121094 C 42.628906 0.695312 38.59375 0.621094 34.554688 0.90625 C 32.09375 1.050781 29.636719 1.3125 27.179688 1.613281 C 23.273438 2.101562 19.394531 2.734375 15.484375 3.375 L 10.238281 2.859375 C 9.746094 1.550781 9.273438 0.234375 8.847656 -1.101562 C 8.367188 -2.617188 5.980469 -1.941406 6.46875 -0.425781 C 7.0625 1.4375 7.726562 3.25 8.441406 5.082031 C 4.5625 9.296875 0.722656 13.570312 -2.429688 18.359375 C -4.070312 20.8125 -8.902344 27.144531 -5.199219 29.859375 C -1.617188 32.484375 1.710938 25.753906 2.992188 23.523438 C 5.730469 18.746094 7.753906 13.570312 9.847656 8.472656 C 10.527344 10 11.265625 11.503906 12.027344 12.992188 C 9.730469 17.324219 8 21.871094 6.828125 26.632812 C 5.660156 31.394531 5.085938 36.222656 5.113281 41.125 L 5.113281 41.148438 C 5.113281 43.230469 5.027344 46.277344 7.441406 47.121094 C 12.484375 48.882812 14.136719 37.269531 14.457031 34.363281 C 14.769531 30.929688 14.835938 27.492188 14.652344 24.050781 C 14.574219 21.84375 14.476562 19.632812 14.453125 17.425781 C 15.105469 18.546875 15.792969 19.660156 16.5 20.757812 C 17.816406 22.824219 19.210938 24.847656 20.683594 26.824219 Z M 20.683594 26.824219 " fill-opacity="1" fill-rule="nonzero"/></g><path fill="#ffffff" d="M 10.167969 5.222656 C 5.683594 11.316406 1.851562 17.851562 -2.003906 24.347656 C -3.097656 26.175781 -4.1875 27.996094 -5.28125 29.820312 C -5.308594 29.867188 -5.296875 29.90625 -5.25 29.933594 C -5.203125 29.960938 -5.164062 29.949219 -5.136719 29.902344 C -1.234375 23.433594 2.511719 16.839844 6.675781 10.535156 C 7.84375 8.761719 9.046875 7.015625 10.304688 5.304688 C 10.367188 5.21875 10.226562 5.136719 10.167969 5.222656 Z M 10.167969 5.222656 " fill-opacity="1" fill-rule="nonzero"/><path fill="#ffffff" d="M 13.644531 12.890625 C 12.589844 21.984375 10.933594 31.019531 9.007812 39.96875 C 8.496094 42.355469 7.949219 44.730469 7.367188 47.097656 C 7.34375 47.199219 7.503906 47.246094 7.527344 47.144531 C 9.707031 38.183594 11.464844 29.097656 12.855469 19.988281 C 13.210938 17.628906 13.535156 15.261719 13.808594 12.890625 C 13.808594 12.785156 13.65625 12.785156 13.644531 12.890625 Z M 13.644531 12.890625 " fill-opacity="1" fill-rule="nonzero"/><path fill="#ffffff" d="M 10.1875 5.191406 C 22.160156 4.917969 34.136719 4.871094 46.121094 5.050781 C 49.378906 5.097656 52.636719 5.160156 55.886719 5.242188 C 55.996094 5.242188 55.996094 5.082031 55.886719 5.078125 C 43.914062 4.78125 31.9375 4.710938 19.953125 4.863281 C 16.699219 4.902344 13.441406 4.957031 10.1875 5.027344 C 10.082031 5.027344 10.082031 5.195312 10.1875 5.191406 Z M 10.1875 5.191406 " fill-opacity="1" fill-rule="nonzero"/><path fill="#ffffff" d="M 13.726562 12.96875 C 21.613281 12.898438 29.476562 13.285156 37.320312 14.128906 C 45.378906 14.949219 53.402344 16.148438 61.382812 17.550781 C 65.691406 18.308594 69.992188 19.128906 74.28125 20 C 74.382812 20 74.429688 19.867188 74.320312 19.847656 C 66.558594 18.273438 58.753906 16.847656 50.917969 15.6875 C 42.960938 14.507812 34.941406 13.589844 26.921875 13.121094 C 22.527344 12.863281 18.125 12.753906 13.726562 12.808594 C 13.625 12.808594 13.621094 12.972656 13.726562 12.96875 Z M 13.726562 12.96875 " fill-opacity="1" fill-rule="nonzero"/><path fill="#ffffff" d="M 28.332031 66.277344 C 27.675781 63.90625 27.101562 61.515625 26.484375 59.136719 C 25.839844 56.59375 25.136719 54.070312 24.433594 51.535156 C 22.898438 45.855469 21.945312 40.082031 21.566406 34.210938 C 21.488281 32.925781 21.449219 31.636719 21.453125 30.351562 C 21.453125 29.691406 21.453125 29.03125 21.488281 28.371094 C 21.488281 27.988281 21.519531 27.609375 21.535156 27.230469 C 21.519531 27.03125 21.53125 26.839844 21.570312 26.644531 C 21.695312 26.449219 21.882812 26.484375 22.09375 26.464844 C 25.179688 26.230469 28.261719 26.320312 31.328125 26.738281 C 34.367188 27.113281 37.378906 27.707031 40.386719 28.296875 C 43.023438 28.8125 45.65625 29.363281 48.273438 29.972656 C 54.113281 31.332031 59.863281 33.042969 65.546875 34.945312 C 65.648438 34.980469 65.691406 34.820312 65.59375 34.789062 C 60.265625 33.007812 54.886719 31.382812 49.421875 30.078125 C 46.738281 29.433594 44.03125 28.851562 41.324219 28.3125 C 38.269531 27.707031 35.214844 27.085938 32.125 26.679688 C 28.597656 26.148438 25.054688 26.042969 21.5 26.363281 C 21.445312 26.359375 21.417969 26.386719 21.421875 26.445312 C 21.253906 29.144531 21.253906 31.84375 21.421875 34.542969 C 21.597656 37.128906 21.9375 39.699219 22.304688 42.265625 C 23.089844 47.78125 24.761719 53.074219 26.136719 58.464844 C 26.804688 61.082031 27.441406 63.714844 28.183594 66.320312 C 28.203125 66.363281 28.234375 66.378906 28.277344 66.367188 C 28.320312 66.355469 28.34375 66.324219 28.339844 66.28125 Z M 28.332031 66.277344 " fill-opacity="1" fill-rule="nonzero"/><path fill="#ffffff" d="M 51.203125 76.554688 C 48.300781 68.835938 45.773438 60.988281 43.613281 53.019531 C 43.007812 50.765625 42.429688 48.507812 41.882812 46.242188 L 41.804688 46.34375 C 51.765625 46.472656 61.726562 46.789062 71.6875 47 C 74.472656 47.0625 77.257812 47.113281 80.039062 47.148438 C 80.09375 47.148438 80.121094 47.121094 80.121094 47.066406 C 80.121094 47.011719 80.09375 46.984375 80.039062 46.984375 C 70.074219 46.855469 60.117188 46.539062 50.136719 46.328125 C 47.351562 46.261719 44.566406 46.214844 41.785156 46.179688 C 41.714844 46.179688 41.6875 46.214844 41.707031 46.28125 C 43.640625 54.296875 45.953125 62.207031 48.648438 70.015625 C 49.410156 72.222656 50.203125 74.414062 51.019531 76.597656 C 51.058594 76.695312 51.21875 76.65625 51.179688 76.554688 Z M 51.203125 76.554688 " fill-opacity="1" fill-rule="nonzero"/><g clip-path="url(#id4)"><path fill="#ffffff" d="M 70.363281 81.507812 C 69.679688 78.386719 69.105469 75.242188 68.664062 72.078125 C 68.433594 70.445312 68.234375 68.800781 68.066406 67.144531 C 67.972656 66.464844 67.917969 65.785156 67.90625 65.101562 C 67.878906 64.550781 68.089844 64.113281 68.53125 63.785156 C 68.84375 63.570312 69.167969 63.378906 69.507812 63.210938 C 74.207031 60.617188 79.207031 58.613281 83.992188 56.203125 C 86.675781 54.898438 89.230469 53.382812 91.660156 51.652344 C 91.742188 51.59375 91.660156 51.453125 91.578125 51.515625 C 87.042969 54.839844 81.820312 57.105469 76.738281 59.457031 C 74.28125 60.601562 71.824219 61.757812 69.425781 63.070312 C 68.902344 63.289062 68.445312 63.601562 68.054688 64.007812 C 67.6875 64.511719 67.726562 65.164062 67.773438 65.753906 C 67.90625 67.414062 68.097656 69.066406 68.316406 70.71875 C 68.785156 74.355469 69.417969 77.96875 70.210938 81.558594 C 70.210938 81.660156 70.390625 81.613281 70.363281 81.511719 Z M 70.363281 81.507812 " fill-opacity="1" fill-rule="nonzero"/></g><path fill="#ffffff" d="M 98.460938 68.964844 C 97.183594 69.605469 96.203125 70.667969 95.242188 71.703125 C 95.183594 71.746094 95.183594 71.789062 95.242188 71.832031 C 98.417969 73.515625 101.703125 74.953125 104.699219 76.964844 C 104.785156 77.027344 104.867188 76.882812 104.78125 76.824219 C 101.785156 74.816406 98.503906 73.375 95.324219 71.691406 L 95.324219 71.820312 C 96.273438 70.792969 97.246094 69.742188 98.511719 69.105469 C 98.605469 69.058594 98.511719 68.917969 98.429688 68.964844 Z M 98.460938 68.964844 " fill-opacity="1" fill-rule="nonzero"/><g clip-path="url(#id5)"><path fill="#ffffff" d="M 7.109375 -1.703125 C 9.007812 2.792969 10.839844 7.351562 12.847656 11.816406 C 14.894531 16.371094 17.597656 20.578125 20.304688 24.757812 C 21.578125 26.722656 22.902344 28.65625 24.351562 30.476562 C 25.898438 32.414062 27.59375 34.214844 29.433594 35.878906 C 33.179688 39.292969 37.007812 42.636719 40.875 45.914062 C 44.742188 49.191406 48.617188 52.304688 52.703125 55.222656 C 56.792969 58.136719 61.085938 60.867188 65.449219 63.414062 C 67.59375 64.667969 69.753906 65.898438 71.949219 67.0625 C 74.019531 68.203125 76.175781 69.136719 78.425781 69.855469 C 79.542969 70.199219 80.675781 70.4375 81.835938 70.574219 C 82.65625 70.664062 83.4375 70.632812 84.242188 70.664062 C 84.804688 70.664062 85.375 70.769531 85.929688 70.824219 C 92.164062 71.4375 98.417969 72.085938 104.589844 73.148438 C 105.265625 73.265625 105.941406 73.390625 106.617188 73.523438 C 106.722656 73.523438 106.761719 73.390625 106.660156 73.371094 C 100.457031 72.113281 94.109375 71.496094 87.816406 70.851562 C 86.855469 70.753906 85.898438 70.65625 84.949219 70.566406 C 84.128906 70.488281 83.363281 70.53125 82.558594 70.476562 C 77.609375 70.140625 73.136719 67.566406 68.890625 65.195312 C 64.539062 62.742188 60.261719 60.171875 56.125 57.386719 C 51.917969 54.5625 47.886719 51.503906 43.972656 48.289062 C 40.054688 45.070312 36.28125 41.75 32.5 38.394531 C 30.628906 36.738281 28.722656 35.101562 26.996094 33.292969 C 25.335938 31.53125 23.820312 29.652344 22.449219 27.660156 C 21.089844 25.722656 19.828125 23.71875 18.566406 21.71875 C 17.226562 19.589844 15.878906 17.457031 14.691406 15.238281 C 13.460938 12.945312 12.453125 10.554688 11.449219 8.160156 C 10.511719 5.929688 9.570312 3.699219 8.621094 1.46875 L 7.269531 -1.746094 C 7.230469 -1.839844 7.070312 -1.800781 7.109375 -1.703125 Z M 7.109375 -1.703125 " fill-opacity="1" fill-rule="nonzero"/></g><g fill="#7a8b68" fill-opacity="1"><g transform="translate(89.771982, 185.230307)"><g><path d="M 66.042969 -88.601562 C 67.011719 -88.816406 66.070312 -89.707031 65.585938 -89.867188 C 60.339844 -91.34375 53.996094 -90.539062 48.617188 -90.082031 C 43.023438 -89.625 37.511719 -88.628906 32.078125 -87.3125 C 21.671875 -84.785156 10.273438 -81.421875 1.453125 -75.132812 C 1.398438 -75.105469 1.503906 -75.050781 1.53125 -75.078125 C 6.640625 -77.066406 11.5625 -79.433594 16.726562 -81.289062 C 18.636719 -81.988281 20.570312 -82.632812 22.507812 -83.226562 C 22.15625 -82.769531 22.078125 -82.175781 21.914062 -81.371094 C 21.511719 -79.621094 21.1875 -77.847656 20.867188 -76.046875 C 20.25 -72.710938 19.84375 -69.324219 19.414062 -65.960938 C 18.554688 -58.863281 17.855469 -51.738281 17.371094 -44.609375 C 16.914062 -37.484375 16.671875 -30.359375 16.753906 -23.207031 C 16.832031 -16.242188 16.617188 -8.765625 18.851562 -2.070312 C 18.984375 -1.695312 19.84375 -1.425781 19.925781 -1.9375 C 20.867188 -8.550781 19.738281 -15.460938 19.65625 -22.105469 C 19.550781 -28.90625 19.765625 -35.710938 20.167969 -42.511719 C 20.570312 -49.15625 21.164062 -55.769531 21.914062 -62.386719 C 22.292969 -65.855469 22.722656 -69.324219 23.152344 -72.792969 C 23.339844 -74.457031 23.5 -76.097656 23.664062 -77.765625 C 23.742188 -78.601562 23.824219 -79.433594 23.878906 -80.265625 C 23.90625 -80.589844 23.933594 -80.9375 23.960938 -81.261719 C 24.199219 -81.828125 24.148438 -82.3125 23.769531 -82.660156 C 24.175781 -82.632812 24.46875 -82.820312 24.308594 -83.277344 C 24.253906 -83.441406 24.121094 -83.574219 23.960938 -83.65625 C 27.105469 -84.570312 30.277344 -85.375 33.503906 -85.996094 C 39.042969 -87.070312 44.636719 -87.714844 50.257812 -88.09375 C 52.945312 -88.28125 55.664062 -88.359375 58.351562 -88.386719 C 60.90625 -88.386719 63.515625 -88.066406 66.042969 -88.601562 Z M 66.042969 -88.601562 "/></g></g></g><g fill="#7a8b68" fill-opacity="1"><g transform="translate(121.635552, 185.230307)"><g><path d="M 1.746094 -25.035156 C 2.367188 -23.636719 3.628906 -22.453125 5.242188 -22.453125 C 7.746094 -22.425781 9.382812 -25.167969 10.246094 -27.160156 C 10.808594 -28.421875 11.375 -30.816406 12.613281 -31.570312 C 15.625 -33.503906 16.96875 -29.335938 17.828125 -27.535156 C 18.796875 -25.519531 19.953125 -23.5 22.238281 -22.882812 C 28.179688 -21.242188 30.144531 -28.609375 30.707031 -32.832031 C 30.761719 -33.128906 30.117188 -33.316406 30.0625 -32.996094 C 29.632812 -30.332031 29.09375 -27.238281 27.023438 -25.332031 C 25.355469 -23.769531 22.613281 -23.125 20.867188 -25.195312 C 20.03125 -26.191406 19.710938 -27.644531 19.28125 -28.828125 C 18.3125 -31.460938 15.972656 -34.5 12.773438 -34.015625 C 11.160156 -33.800781 10.136719 -32.5625 9.332031 -31.246094 C 8.738281 -30.25 6.105469 -24.199219 4.492188 -24.980469 C 3.871094 -25.277344 3.738281 -28.234375 3.65625 -28.800781 C 3.46875 -30.0625 3.308594 -31.355469 3.199219 -32.617188 C 3.121094 -33.585938 3.066406 -34.554688 3.011719 -35.523438 C 10.539062 -44.53125 15.328125 -56.148438 17.316406 -67.601562 C 17.800781 -70.398438 18.097656 -73.222656 18.3125 -76.070312 C 18.472656 -78.574219 18.984375 -81.613281 17.960938 -84.03125 C 17.371094 -85.375 16.214844 -86.503906 14.707031 -86.640625 C 12.558594 -86.828125 11.214844 -85.132812 10.164062 -83.546875 C 6.722656 -78.222656 5.191406 -71.984375 3.765625 -65.878906 C 2.179688 -59.078125 0.859375 -52.167969 0.347656 -45.148438 C 0.0820312 -41.8125 0.0273438 -38.453125 0.214844 -35.117188 C 0.402344 -31.972656 0.457031 -27.964844 1.746094 -25.035156 Z M 2.984375 -41.222656 C 3.386719 -52.167969 5.539062 -63.621094 9.007812 -74.027344 C 9.789062 -76.421875 10.757812 -78.789062 12.019531 -80.992188 C 12.585938 -81.960938 13.175781 -83.199219 14.0625 -83.949219 C 16.054688 -85.617188 16.996094 -82.820312 17.261719 -81.152344 C 17.988281 -76.582031 17.210938 -71.445312 16.429688 -66.929688 C 14.414062 -55.5 9.601562 -45.417969 3.011719 -36.003906 C 2.929688 -37.753906 2.929688 -39.476562 2.984375 -41.222656 Z M 2.984375 -41.222656 "/></g></g></g><g fill="#7a8b68" fill-opacity="1"><g transform="translate(151.724442, 185.230307)"><g><path d="M 0.109375 -21.863281 C 2.742188 -20.515625 5.054688 -22.5625 6.589844 -24.550781 C 7.636719 -25.867188 8.578125 -27.265625 9.4375 -28.71875 C 10.21875 -30.007812 11.457031 -31.757812 11.992188 -33.316406 C 12.019531 -32.429688 12.074219 -31.570312 12.179688 -30.707031 C 12.371094 -29.175781 12.53125 -27.347656 13.390625 -26.054688 C 17.910156 -19.144531 22.777344 -32.996094 23.769531 -35.683594 C 23.824219 -35.84375 23.449219 -36.003906 23.394531 -35.84375 C 22.613281 -33.882812 21.699219 -32.214844 20.515625 -30.464844 C 19.765625 -29.335938 17.453125 -25.679688 16.402344 -25.679688 C 15.40625 -25.679688 15.164062 -28.878906 15.113281 -29.632812 C 15.003906 -31.085938 15.003906 -32.535156 14.84375 -33.988281 C 14.628906 -35.628906 13.632812 -37.082031 11.804688 -37.1875 C 10.300781 -37.296875 8.792969 -33.746094 7.960938 -32.132812 C 6.910156 -30.117188 4.195312 -23.582031 1.746094 -24.335938 C 0.996094 -24.578125 0.429688 -25.4375 0.375 -26.675781 C 0.324219 -27.589844 0.402344 -28.503906 0.539062 -29.390625 C 0.808594 -31.273438 1.480469 -33.128906 2.230469 -34.875 C 3.523438 -37.78125 5.054688 -40.925781 7.421875 -43.132812 C 8.792969 -44.394531 10.757812 -45.578125 12.71875 -45.417969 C 15.191406 -45.257812 15.839844 -43.160156 16.914062 -41.382812 C 17.183594 -40.953125 18.070312 -40.710938 18.367188 -41.195312 C 18.367188 -41.195312 19.066406 -44.367188 15.21875 -46.679688 C 12.878906 -48.105469 9.867188 -47.730469 7.476562 -46.492188 C 4.625 -45.039062 2.796875 -42.324219 1.289062 -39.609375 C -0.511719 -36.382812 -2.125 -32.832031 -2.445312 -29.09375 C -2.6875 -26.539062 -2.472656 -23.152344 0.109375 -21.863281 Z M 0.109375 -21.863281 "/></g></g></g><g fill="#7a8b68" fill-opacity="1"><g transform="translate(174.983504, 185.230307)"><g><path d="M 4.25 -23.261719 C 6.777344 -24.335938 7.339844 -29.523438 8.039062 -31.785156 C 8.578125 -33.503906 9.222656 -35.226562 10.003906 -36.867188 C 10.488281 -37.835938 11.105469 -39.339844 11.9375 -40.039062 C 13.363281 -41.25 13.445312 -40.578125 13.417969 -39.125 C 13.257812 -34.285156 12.449219 -29.445312 12.828125 -24.550781 C 12.988281 -22.265625 13.042969 -17.34375 16.296875 -17.128906 C 19.011719 -16.96875 18.796875 -22.183594 19.066406 -24.039062 C 19.816406 -29.363281 22.078125 -33.453125 27.480469 -35.117188 C 27.832031 -35.253906 27.429688 -35.574219 27.1875 -35.546875 C 20.113281 -34.152344 18.445312 -27.078125 17.128906 -21.054688 C 17.019531 -20.492188 16.859375 -19.953125 16.699219 -19.414062 C 16.671875 -18.636719 16.589844 -18.636719 16.402344 -19.441406 C 15.890625 -20.300781 15.863281 -21.996094 15.757812 -22.992188 C 15.515625 -25.25 15.542969 -27.535156 15.648438 -29.792969 C 15.757812 -32.054688 16 -34.339844 16.132812 -36.597656 C 16.214844 -38.050781 16.5625 -39.742188 15.863281 -41.089844 C 15.085938 -42.675781 13.175781 -43.238281 12.019531 -41.789062 C 11.132812 -40.683594 10.433594 -39.042969 9.734375 -37.78125 C 8.953125 -36.300781 8.335938 -34.742188 7.746094 -33.183594 C 7.125 -31.597656 6.453125 -30.035156 5.753906 -28.476562 C 5.378906 -27.644531 5.027344 -27.023438 4.410156 -25.679688 C 4.058594 -25.0625 3.523438 -24.390625 2.984375 -24.660156 C 2.824219 -25.195312 2.714844 -25.734375 2.609375 -26.273438 C 1.910156 -30.679688 2.554688 -35.332031 3.980469 -39.527344 C 4.382812 -40.738281 1.695312 -41.8125 1.289062 -40.605469 C -0.1875 -36.355469 -1.074219 -31.355469 -0.214844 -26.863281 C 0.160156 -24.925781 1.910156 -22.265625 4.25 -23.261719 Z M 4.25 -23.261719 "/></g></g></g><g fill="#7a8b68" fill-opacity="1"><g transform="translate(200.528134, 185.230307)"><g><path d="M 2.929688 -2.285156 C 3.820312 -10.003906 5.082031 -17.695312 7.019531 -25.195312 C 7.261719 -24.253906 7.691406 -23.339844 8.390625 -22.585938 C 9.734375 -21.136719 12.316406 -19.792969 14.332031 -20.085938 C 17.046875 -20.464844 18.417969 -21.835938 19.738281 -24.066406 C 21.726562 -27.429688 23.339844 -30.816406 24.363281 -34.609375 C 24.46875 -35.039062 23.609375 -35.386719 23.421875 -34.984375 C 21.941406 -31.570312 20.410156 -28.207031 18.5 -25.007812 C 17.503906 -23.3125 16.726562 -22.183594 14.816406 -21.511719 C 12.449219 -20.707031 9.519531 -22.183594 8.660156 -24.550781 C 7.207031 -28.664062 10.488281 -32.457031 12.503906 -35.683594 C 13.230469 -36.8125 16 -40.871094 13.820312 -41.894531 C 12.128906 -42.675781 10.59375 -39.796875 9.867188 -38.640625 C 7.71875 -35.253906 6.453125 -31.273438 5.242188 -27.480469 C 3.765625 -22.75 2.636719 -17.9375 1.722656 -13.070312 C 1.667969 -14.925781 1.695312 -16.78125 1.667969 -18.609375 C 1.640625 -23.878906 1.828125 -29.175781 2.203125 -34.445312 C 2.230469 -34.5 2.230469 -34.582031 2.230469 -34.660156 C 5.835938 -42.863281 9.117188 -51.226562 11.804688 -59.75 C 13.09375 -63.890625 14.25 -68.058594 15.085938 -72.308594 C 15.570312 -74.753906 16.484375 -79.863281 13.148438 -80.832031 C 10.351562 -81.636719 8.390625 -77.390625 7.449219 -75.398438 C 5.484375 -71.367188 4.277344 -66.902344 3.28125 -62.546875 C 1.183594 -53.375 0 -43.910156 -0.671875 -34.554688 C -1.074219 -29.09375 -1.238281 -23.664062 -1.183594 -18.203125 C -1.128906 -13.015625 -1.15625 -7.691406 0.109375 -2.609375 C 0.375 -1.585938 2.769531 -0.914062 2.929688 -2.285156 Z M 10.136719 -35.117188 C 10.351562 -35.683594 12.988281 -40.632812 13.175781 -40.414062 C 13.472656 -40.121094 11.265625 -36.488281 10.890625 -35.871094 C 10.539062 -35.308594 10.164062 -34.769531 9.789062 -34.203125 C 9.894531 -34.527344 10.003906 -34.824219 10.136719 -35.117188 Z M 7.179688 -66.121094 C 7.824219 -68.515625 8.578125 -70.910156 9.546875 -73.195312 C 9.894531 -74.054688 12.503906 -78.867188 12.691406 -78.734375 C 13.929688 -77.980469 12.613281 -72.09375 12.421875 -70.9375 C 11.992188 -68.167969 11.347656 -65.449219 10.675781 -62.761719 C 8.710938 -55.015625 5.699219 -47.621094 2.714844 -40.226562 C 3.523438 -48.96875 4.839844 -57.734375 7.179688 -66.121094 Z M 7.179688 -66.121094 "/></g></g></g><g fill="#7a8b68" fill-opacity="1"><g transform="translate(224.056087, 185.230307)"><g/></g></g><g fill="#7a8b68" fill-opacity="1"><g transform="translate(239.597978, 185.230307)"><g><path d="M 39.714844 -30.222656 C 37.644531 -29.09375 36.542969 -28.90625 34.824219 -27.507812 C 34.875 -34.097656 34.609375 -40.65625 33.988281 -47.21875 C 33.800781 -49.289062 32 -67.0625 27.886719 -63.808594 C 26.753906 -62.949219 26.40625 -60.773438 25.894531 -59.507812 C 25.0625 -57.355469 24.175781 -55.207031 23.339844 -53.054688 C 21.648438 -48.75 19.925781 -44.449219 17.960938 -40.28125 C 15.785156 -35.65625 13.175781 -31.191406 9.867188 -27.292969 C 9.867188 -27.292969 9.007812 -26.136719 8.792969 -26.082031 C 7.746094 -25.894531 7.988281 -26.675781 7.878906 -27.453125 C 7.71875 -28.90625 7.664062 -30.386719 7.609375 -31.863281 C 7.503906 -34.632812 7.527344 -37.402344 7.582031 -40.171875 C 7.691406 -45.875 8.011719 -51.574219 7.851562 -57.304688 C 7.71875 -61.308594 8.121094 -67.089844 4.570312 -69.832031 C 4.140625 -70.183594 2.902344 -70.695312 2.609375 -69.886719 C 1.640625 -67.359375 0.566406 -64.886719 -0.109375 -62.277344 C -0.726562 -59.855469 -0.914062 -57.4375 -1.15625 -54.992188 C -1.398438 -52.703125 -2.769531 -45.902344 1.667969 -46.84375 C 3.066406 -47.113281 2.070312 -48.5625 0.859375 -48.859375 C 0.132812 -49.988281 0.132812 -52.8125 0.0546875 -53.859375 C -0.109375 -55.6875 0.160156 -57.464844 0.566406 -59.265625 C 1.183594 -62.144531 2.152344 -64.992188 3.792969 -67.441406 C 5.191406 -64.292969 4.894531 -60.179688 4.976562 -56.925781 C 5.054688 -52.355469 4.867188 -47.785156 4.757812 -43.210938 C 4.625 -38.800781 4.570312 -34.417969 4.867188 -30.007812 C 5.027344 -27.617188 5.027344 -24.175781 7.988281 -23.5 C 10.945312 -22.828125 12.371094 -26.136719 13.605469 -28.234375 C 15.648438 -31.675781 17.398438 -35.28125 18.984375 -38.9375 C 20.625 -42.621094 22.050781 -46.414062 23.476562 -50.175781 C 24.875 -53.832031 25.949219 -58.109375 27.964844 -61.472656 C 28.316406 -62.035156 28.152344 -62.25 28.878906 -62.546875 C 29.929688 -62.949219 29.257812 -62.679688 29.742188 -61.980469 C 30.277344 -61.230469 30.386719 -59.882812 30.628906 -58.996094 C 31.191406 -56.710938 31.542969 -54.398438 31.8125 -52.058594 C 32.320312 -47.675781 32.511719 -43.210938 32.589844 -38.800781 C 32.699219 -34.5 32.671875 -30.199219 32.511719 -25.894531 C 26.808594 -21.671875 22.023438 -16.269531 18.742188 -9.816406 C 15.328125 -3.09375 12.53125 6.613281 16.484375 13.714844 C 17.695312 15.863281 19.871094 17.53125 22.453125 17.128906 C 25.707031 16.617188 27.589844 13.230469 28.851562 10.539062 C 32.726562 2.152344 33.746094 -7.289062 34.390625 -16.402344 C 34.609375 -19.738281 34.742188 -23.070312 34.796875 -26.40625 C 40.28125 -30.359375 37.78125 -28.691406 39.878906 -30.007812 C 40.066406 -30.0625 39.851562 -30.25 39.714844 -30.222656 Z M 31.488281 -11.535156 C 31.003906 -7.125 30.441406 -2.714844 29.363281 1.585938 C 28.394531 5.457031 27.265625 9.976562 24.875 13.230469 C 23.339844 15.328125 20.949219 16.726562 18.6875 14.519531 C 17.074219 12.960938 16.589844 10.058594 16.324219 7.988281 C 15.785156 3.628906 16.699219 -0.832031 18.152344 -4.949219 C 20.921875 -12.71875 26.054688 -19.414062 32.457031 -24.605469 C 32.269531 -20.25 31.945312 -15.863281 31.488281 -11.535156 Z M 31.488281 -11.535156 "/></g></g></g><g fill="#7a8b68" fill-opacity="1"><g transform="translate(280.17361, 185.230307)"><g><path d="M 3.953125 -29.285156 C 4.140625 -29.203125 4.328125 -29.148438 4.492188 -29.09375 C 5.054688 -24.875 7.339844 -21.1875 12.371094 -22.5625 C 16 -23.554688 17.882812 -26.945312 18.527344 -30.734375 C 20.355469 -31.191406 23.933594 -33.558594 24.496094 -35.089844 C 24.605469 -35.386719 24.226562 -35.601562 24.121094 -35.441406 C 22.613281 -33.316406 20.085938 -32.1875 18.6875 -32 C 19.039062 -35.46875 18.445312 -39.125 17.289062 -41.570312 C 14.628906 -47.164062 8.175781 -50.285156 3.144531 -45.417969 C -1.480469 -40.980469 -3.28125 -32.105469 3.953125 -29.285156 Z M 10.566406 -24.550781 C 8.148438 -24.253906 7.289062 -26.246094 7.125 -28.636719 C 9.789062 -28.503906 12.53125 -29.230469 15.085938 -29.875 C 14.332031 -27.429688 12.933594 -24.820312 10.566406 -24.550781 Z M 6.183594 -44.394531 C 7.71875 -45.714844 9.519531 -46.816406 11.617188 -46.25 C 13.203125 -45.847656 14.519531 -43.667969 15.03125 -42.269531 C 16.160156 -39.234375 16.269531 -35.65625 15.730469 -32.511719 C 15.675781 -32.132812 15.597656 -31.730469 15.488281 -31.300781 C 13.417969 -30.921875 11.292969 -30.679688 9.144531 -30.679688 C 8.496094 -30.65625 7.824219 -30.628906 7.125 -30.65625 C 7.234375 -32.511719 7.582031 -34.285156 7.824219 -35.144531 C 8.148438 -36.355469 5.566406 -37.429688 5.136719 -36.222656 C 4.652344 -34.824219 4.355469 -33.046875 4.355469 -31.21875 C 4.25 -31.273438 4.113281 -31.328125 4.007812 -31.378906 C 2.367188 -32.375 1.746094 -34.472656 1.828125 -36.273438 C 1.9375 -39.367188 3.898438 -42.433594 6.183594 -44.394531 Z M 6.183594 -44.394531 "/></g></g></g><g fill="#7a8b68" fill-opacity="1"><g transform="translate(304.185567, 185.230307)"><g><path d="M 18.5 -26.835938 C 22.535156 -24.953125 24.980469 -32.644531 25.492188 -35.28125 C 25.597656 -35.710938 24.847656 -36.03125 24.605469 -35.65625 C 23.609375 -34.097656 22.828125 -32.484375 21.914062 -30.898438 C 21.539062 -30.25 20.949219 -28.828125 20.273438 -28.449219 C 18.417969 -27.402344 18.394531 -29.550781 18.230469 -30.65625 C 17.828125 -33.71875 18.339844 -36.703125 16.941406 -39.554688 C 16.484375 -40.46875 14.84375 -41.195312 14.171875 -40.148438 C 12.15625 -37.027344 10.917969 -33.585938 9.601562 -30.144531 C 8.496094 -27.292969 7.152344 -22.855469 4.597656 -20.894531 C 4.300781 -20.382812 3.84375 -20.167969 3.226562 -20.300781 C 2.554688 -19.925781 2.179688 -20.085938 2.179688 -20.785156 C 1.503906 -21.539062 1.585938 -23.636719 1.503906 -24.632812 C 1.316406 -26.648438 1.371094 -28.664062 1.585938 -30.679688 C 1.828125 -33.101562 2.339844 -35.46875 2.957031 -37.835938 C 3.414062 -39.609375 0.566406 -40.414062 -0.0273438 -38.023438 C -0.699219 -35.359375 -1.210938 -32.617188 -1.398438 -29.875 C -1.640625 -26.433594 -2.015625 -19.199219 2.179688 -17.800781 C 6.371094 -16.429688 9.089844 -21.671875 10.539062 -24.683594 C 12.261719 -28.234375 13.390625 -32 15.03125 -35.546875 C 15.328125 -32.132812 15.328125 -28.316406 18.5 -26.835938 Z M 18.5 -26.835938 "/></g></g></g><g fill="#4e5b41" fill-opacity="1"><g transform="translate(117.512566, 204.552676)"><g><path d="M 2.75 -5.660156 L 6.683594 -5.660156 C 7.078125 -5.660156 7.386719 -5.964844 7.386719 -6.359375 C 7.386719 -6.757812 7.042969 -7.0625 6.683594 -7.0625 L 2.75 -7.0625 L 2.75 -11.265625 L 7.027344 -11.265625 C 7.421875 -11.265625 7.746094 -11.554688 7.746094 -11.949219 C 7.746094 -12.34375 7.421875 -12.667969 7.027344 -12.667969 L 2.15625 -12.667969 C 1.671875 -12.667969 1.3125 -12.234375 1.3125 -11.824219 L 1.3125 -0.539062 C 1.3125 -0.160156 1.636719 0.179688 2.03125 0.179688 C 2.425781 0.179688 2.75 -0.160156 2.75 -0.539062 Z M 2.75 -5.660156 "/></g></g></g><g fill="#4e5b41" fill-opacity="1"><g transform="translate(126.0293, 204.552676)"><g><path d="M 4.167969 0.144531 C 6.359375 0.144531 7.527344 -1.257812 7.527344 -3.054688 L 7.527344 -6.054688 C 7.527344 -7.851562 6.359375 -9.253906 4.167969 -9.253906 C 1.976562 -9.253906 0.808594 -7.851562 0.808594 -6.054688 L 0.808594 -3.054688 C 0.808594 -1.257812 1.976562 0.144531 4.167969 0.144531 Z M 4.167969 -1.148438 C 2.875 -1.148438 2.210938 -1.867188 2.210938 -3.054688 L 2.210938 -6.074219 C 2.210938 -7.242188 2.875 -7.960938 4.167969 -7.960938 C 5.460938 -7.960938 6.128906 -7.242188 6.128906 -6.074219 L 6.128906 -3.054688 C 6.128906 -1.867188 5.460938 -1.148438 4.167969 -1.148438 Z M 4.167969 -1.148438 "/></g></g></g><g fill="#4e5b41" fill-opacity="1"><g transform="translate(134.366364, 204.552676)"><g><path d="M 2.785156 -6.628906 C 2.785156 -6.773438 2.765625 -6.9375 2.75 -7.117188 C 3.648438 -7.78125 4.292969 -7.78125 5.03125 -7.761719 C 5.410156 -7.746094 5.730469 -8.03125 5.730469 -8.480469 C 5.730469 -8.859375 5.515625 -9.164062 4.796875 -9.164062 C 4.113281 -9.164062 3.109375 -8.875 2.335938 -8.390625 C 2.15625 -8.679688 1.90625 -8.875 1.617188 -8.875 C 1.277344 -8.875 0.96875 -8.625 0.96875 -8.246094 C 0.96875 -8.085938 1.023438 -7.996094 1.097656 -7.886719 C 1.3125 -7.566406 1.382812 -7.222656 1.382812 -6.628906 L 1.382812 -0.558594 C 1.382812 -0.160156 1.6875 0.144531 2.085938 0.144531 C 2.480469 0.144531 2.785156 -0.160156 2.785156 -0.558594 Z M 2.785156 -6.628906 "/></g></g></g><g fill="#4e5b41" fill-opacity="1"><g transform="translate(140.421519, 204.552676)"><g/></g></g><g fill="#4e5b41" fill-opacity="1"><g transform="translate(145.811862, 204.552676)"><g><path d="M 7.132812 -8.265625 C 7.152344 -8.335938 7.167969 -8.410156 7.167969 -8.480469 C 7.167969 -8.894531 6.828125 -9.179688 6.46875 -9.179688 C 6.199219 -9.179688 5.929688 -9.019531 5.820312 -8.714844 L 3.863281 -1.90625 L 1.617188 -8.714844 C 1.507812 -9.019531 1.257812 -9.179688 0.988281 -9.179688 C 0.59375 -9.179688 0.289062 -8.910156 0.289062 -8.535156 C 0.289062 -8.460938 0.289062 -8.335938 0.324219 -8.28125 L 3.179688 -0.0351562 C 2.640625 1.636719 2.136719 2.246094 1.007812 2.300781 C 0.59375 2.316406 0.339844 2.640625 0.339844 2.964844 C 0.339844 3.359375 0.648438 3.648438 1.058594 3.648438 C 3.394531 3.59375 4.078125 1.671875 4.941406 -1.132812 Z M 7.132812 -8.265625 "/></g></g></g><g fill="#4e5b41" fill-opacity="1"><g transform="translate(153.214596, 204.552676)"><g><path d="M 4.167969 0.144531 C 6.359375 0.144531 7.527344 -1.257812 7.527344 -3.054688 L 7.527344 -6.054688 C 7.527344 -7.851562 6.359375 -9.253906 4.167969 -9.253906 C 1.976562 -9.253906 0.808594 -7.851562 0.808594 -6.054688 L 0.808594 -3.054688 C 0.808594 -1.257812 1.976562 0.144531 4.167969 0.144531 Z M 4.167969 -1.148438 C 2.875 -1.148438 2.210938 -1.867188 2.210938 -3.054688 L 2.210938 -6.074219 C 2.210938 -7.242188 2.875 -7.960938 4.167969 -7.960938 C 5.460938 -7.960938 6.128906 -7.242188 6.128906 -6.074219 L 6.128906 -3.054688 C 6.128906 -1.867188 5.460938 -1.148438 4.167969 -1.148438 Z M 4.167969 -1.148438 "/></g></g></g><g fill="#4e5b41" fill-opacity="1"><g transform="translate(161.55166, 204.552676)"><g><path d="M 6.324219 -2.210938 C 6.324219 -2.066406 6.34375 -1.886719 6.359375 -1.707031 C 5.769531 -1.328125 5.085938 -1.113281 4.382812 -1.113281 C 3.304688 -1.113281 2.730469 -1.886719 2.730469 -3.253906 L 2.730469 -8.5 C 2.730469 -8.875 2.480469 -9.179688 2.03125 -9.179688 C 1.582031 -9.179688 1.328125 -8.875 1.328125 -8.5 L 1.328125 -3.253906 C 1.328125 -1.222656 2.28125 0.144531 4.1875 0.144531 C 5.03125 0.144531 5.949219 -0.0546875 6.738281 -0.503906 C 6.9375 -0.179688 7.167969 0.0351562 7.511719 0.0351562 C 7.886719 0.0351562 8.175781 -0.25 8.175781 -0.59375 C 8.175781 -0.753906 8.085938 -0.878906 8.050781 -0.953125 C 7.90625 -1.222656 7.726562 -1.222656 7.726562 -2.210938 L 7.726562 -8.5 C 7.726562 -8.875 7.492188 -9.179688 7.027344 -9.179688 C 6.558594 -9.179688 6.324219 -8.875 6.324219 -8.5 Z M 6.324219 -2.210938 "/></g></g></g><g fill="#4e5b41" fill-opacity="1"><g transform="translate(170.697267, 204.552676)"><g><path d="M 2.785156 -6.628906 C 2.785156 -6.773438 2.765625 -6.9375 2.75 -7.117188 C 3.648438 -7.78125 4.292969 -7.78125 5.03125 -7.761719 C 5.410156 -7.746094 5.730469 -8.03125 5.730469 -8.480469 C 5.730469 -8.859375 5.515625 -9.164062 4.796875 -9.164062 C 4.113281 -9.164062 3.109375 -8.875 2.335938 -8.390625 C 2.15625 -8.679688 1.90625 -8.875 1.617188 -8.875 C 1.277344 -8.875 0.96875 -8.625 0.96875 -8.246094 C 0.96875 -8.085938 1.023438 -7.996094 1.097656 -7.886719 C 1.3125 -7.566406 1.382812 -7.222656 1.382812 -6.628906 L 1.382812 -0.558594 C 1.382812 -0.160156 1.6875 0.144531 2.085938 0.144531 C 2.480469 0.144531 2.785156 -0.160156 2.785156 -0.558594 Z M 2.785156 -6.628906 "/></g></g></g><g fill="#4e5b41" fill-opacity="1"><g transform="translate(176.752421, 204.552676)"><g/></g></g><g fill="#4e5b41" fill-opacity="1"><g transform="translate(182.142764, 204.552676)"><g><path d="M 1.328125 -1.6875 C 1.328125 -0.0703125 2.011719 0.144531 2.460938 0.144531 C 2.820312 0.144531 3.109375 -0.144531 3.109375 -0.503906 C 3.109375 -0.648438 3.035156 -0.773438 2.984375 -0.84375 C 2.765625 -1.058594 2.730469 -1.292969 2.730469 -1.6875 L 2.730469 -12.324219 C 2.730469 -12.722656 2.425781 -13.027344 2.03125 -13.027344 C 1.636719 -13.027344 1.328125 -12.703125 1.328125 -12.324219 Z M 1.328125 -1.6875 "/></g></g></g><g fill="#4e5b41" fill-opacity="1"><g transform="translate(186.239424, 204.552676)"><g><path d="M 4.167969 0.144531 C 6.359375 0.144531 7.527344 -1.257812 7.527344 -3.054688 L 7.527344 -6.054688 C 7.527344 -7.851562 6.359375 -9.253906 4.167969 -9.253906 C 1.976562 -9.253906 0.808594 -7.851562 0.808594 -6.054688 L 0.808594 -3.054688 C 0.808594 -1.257812 1.976562 0.144531 4.167969 0.144531 Z M 4.167969 -1.148438 C 2.875 -1.148438 2.210938 -1.867188 2.210938 -3.054688 L 2.210938 -6.074219 C 2.210938 -7.242188 2.875 -7.960938 4.167969 -7.960938 C 5.460938 -7.960938 6.128906 -7.242188 6.128906 -6.074219 L 6.128906 -3.054688 C 6.128906 -1.867188 5.460938 -1.148438 4.167969 -1.148438 Z M 4.167969 -1.148438 "/></g></g></g><g fill="#4e5b41" fill-opacity="1"><g transform="translate(194.576488, 204.552676)"><g><path d="M 7.257812 -8.300781 C 7.386719 -8.769531 7.027344 -9.179688 6.59375 -9.179688 C 6.324219 -9.179688 6.054688 -8.984375 5.964844 -8.714844 L 3.898438 -1.941406 L 1.796875 -8.714844 C 1.6875 -9.019531 1.4375 -9.179688 1.167969 -9.179688 C 0.753906 -9.179688 0.339844 -8.785156 0.484375 -8.355469 L 2.984375 -0.683594 C 3.179688 -0.109375 3.414062 0.144531 3.898438 0.144531 C 4.367188 0.144531 4.617188 -0.109375 4.816406 -0.699219 Z M 7.257812 -8.300781 "/></g></g></g><g fill="#4e5b41" fill-opacity="1"><g transform="translate(202.302649, 204.552676)"><g><path d="M 4.167969 -1.097656 C 2.875 -1.097656 2.210938 -1.742188 2.210938 -2.75 L 2.210938 -3.808594 C 2.839844 -3.703125 3.503906 -3.648438 4.042969 -3.648438 C 6.179688 -3.648438 7.078125 -4.652344 7.078125 -6.308594 C 7.078125 -8.085938 6.089844 -9.234375 4.097656 -9.234375 C 1.957031 -9.234375 0.808594 -7.921875 0.808594 -6.199219 L 0.808594 -2.839844 C 0.808594 -1.148438 1.976562 0.144531 4.007812 0.144531 C 4.976562 0.144531 6.917969 -0.144531 6.917969 -1.023438 C 6.917969 -1.347656 6.648438 -1.652344 6.289062 -1.652344 C 6.164062 -1.652344 6.074219 -1.617188 6.039062 -1.597656 C 5.410156 -1.3125 4.921875 -1.097656 4.167969 -1.097656 Z M 5.695312 -6.308594 C 5.695312 -5.570312 5.460938 -4.832031 4.097656 -4.832031 C 3.738281 -4.832031 2.875 -4.871094 2.210938 -4.960938 L 2.210938 -6.324219 C 2.210938 -7.332031 2.894531 -7.960938 4.0625 -7.960938 C 5.101562 -7.960938 5.695312 -7.476562 5.695312 -6.308594 Z M 5.695312 -6.308594 "/></g></g></g><g fill="#4e5b41" fill-opacity="1"><g transform="translate(210.118646, 204.552676)"><g/></g></g><g fill="#4e5b41" fill-opacity="1"><g transform="translate(215.508989, 204.552676)"><g><path d="M 5.785156 -5.050781 C 5.230469 -5.210938 4.617188 -5.300781 3.972656 -5.300781 C 1.851562 -5.300781 0.808594 -4.402344 0.808594 -2.640625 L 0.808594 -2.570312 C 0.808594 -0.953125 1.707031 0.144531 3.558594 0.144531 C 4.527344 0.144531 5.335938 -0.179688 6.019531 -0.808594 C 6.289062 -0.25 6.773438 0.0898438 7.367188 0.0898438 C 7.761719 0.0898438 8.175781 -0.0703125 8.175781 -0.519531 C 8.175781 -0.828125 7.996094 -1.132812 7.65625 -1.132812 C 7.582031 -1.132812 7.566406 -1.113281 7.511719 -1.113281 C 7.296875 -1.113281 7.1875 -1.292969 7.1875 -1.652344 L 7.1875 -5.605469 C 7.1875 -7.976562 6.289062 -9.234375 4.042969 -9.234375 C 2.804688 -9.234375 1.457031 -8.894531 1.527344 -8.066406 C 1.546875 -7.796875 1.6875 -7.476562 2.03125 -7.476562 C 2.226562 -7.476562 2.445312 -7.601562 2.496094 -7.617188 C 2.894531 -7.835938 3.234375 -7.996094 3.863281 -7.996094 C 5.15625 -7.996094 5.785156 -7.386719 5.785156 -6.074219 Z M 3.953125 -4.113281 C 4.492188 -4.113281 5.191406 -4.023438 5.785156 -3.84375 L 5.785156 -1.90625 C 5.15625 -1.367188 4.546875 -1.113281 3.773438 -1.113281 C 2.570312 -1.113281 2.191406 -1.707031 2.191406 -2.550781 L 2.191406 -2.625 C 2.191406 -3.433594 2.480469 -4.113281 3.953125 -4.113281 Z M 3.953125 -4.113281 "/></g></g></g><g fill="#4e5b41" fill-opacity="1"><g transform="translate(224.169468, 204.552676)"><g><path d="M 2.785156 -6.667969 C 2.785156 -6.808594 2.765625 -6.988281 2.730469 -7.1875 C 3.34375 -7.65625 4.023438 -7.941406 4.726562 -7.941406 C 5.804688 -7.941406 6.378906 -7.167969 6.378906 -5.804688 L 6.378906 -0.558594 C 6.378906 -0.179688 6.628906 0.125 7.078125 0.125 C 7.527344 0.125 7.78125 -0.179688 7.78125 -0.558594 L 7.78125 -5.804688 C 7.78125 -7.835938 6.828125 -9.199219 4.921875 -9.199219 C 4.0625 -9.199219 3.144531 -8.949219 2.355469 -8.390625 C 2.15625 -8.695312 1.921875 -8.910156 1.597656 -8.910156 C 1.222656 -8.910156 0.933594 -8.640625 0.933594 -8.28125 C 0.933594 -8.101562 1.023438 -7.996094 1.058594 -7.921875 C 1.222656 -7.65625 1.382812 -7.65625 1.382812 -6.667969 L 1.382812 -0.558594 C 1.382812 -0.179688 1.617188 0.125 2.085938 0.125 C 2.550781 0.125 2.785156 -0.179688 2.785156 -0.558594 Z M 2.785156 -6.667969 "/></g></g></g><g fill="#4e5b41" fill-opacity="1"><g transform="translate(233.315075, 204.552676)"><g><path d="M 3.808594 -9.164062 C 1.527344 -9.164062 0.808594 -7.671875 0.808594 -5.535156 L 0.808594 -3.253906 C 0.808594 -1.238281 1.777344 0.144531 3.664062 0.144531 C 4.5625 0.144531 5.425781 -0.160156 6.21875 -0.558594 C 6.433594 -0.214844 6.757812 0.0195312 7.167969 0.0195312 C 7.476562 0.0195312 7.796875 -0.234375 7.796875 -0.609375 C 7.796875 -0.773438 7.746094 -0.863281 7.671875 -0.96875 C 7.3125 -1.238281 7.207031 -1.546875 7.207031 -2.046875 L 7.207031 -12.34375 C 7.207031 -12.722656 6.953125 -13.027344 6.503906 -13.027344 C 6.054688 -13.027344 5.804688 -12.722656 5.804688 -12.34375 L 5.804688 -8.820312 C 5.15625 -9.039062 4.402344 -9.164062 3.808594 -9.164062 Z M 5.804688 -2.046875 C 5.804688 -1.921875 5.804688 -1.777344 5.839844 -1.636719 C 5.230469 -1.3125 4.527344 -1.113281 3.953125 -1.113281 C 2.765625 -1.113281 2.210938 -1.851562 2.210938 -3.253906 L 2.210938 -5.535156 C 2.210938 -7.207031 2.675781 -7.941406 3.988281 -7.941406 C 4.421875 -7.941406 5.210938 -7.816406 5.804688 -7.566406 Z M 5.804688 -2.046875 "/></g></g></g><g fill="#4e5b41" fill-opacity="1"><g transform="translate(242.083359, 204.552676)"><g/></g></g><g fill="#4e5b41" fill-opacity="1"><g transform="translate(247.473702, 204.552676)"><g><path d="M 0.953125 -6.648438 C 0.953125 -4.277344 3.34375 -4.152344 4.472656 -3.539062 C 4.832031 -3.34375 5.140625 -3.074219 5.140625 -2.425781 C 5.140625 -1.492188 4.472656 -1.097656 3.484375 -1.097656 C 2.765625 -1.097656 2.191406 -1.3125 1.6875 -1.507812 C 1.636719 -1.527344 1.617188 -1.546875 1.507812 -1.546875 C 1.078125 -1.546875 0.84375 -1.203125 0.84375 -0.898438 C 0.84375 -0.0703125 2.570312 0.144531 3.484375 0.144531 C 5.480469 0.144531 6.503906 -0.863281 6.503906 -2.480469 C 6.503906 -4.816406 4.402344 -4.976562 3.164062 -5.589844 C 2.550781 -5.894531 2.316406 -6.179688 2.316406 -6.738281 C 2.316406 -7.566406 2.820312 -7.996094 3.917969 -7.996094 C 4.5625 -7.996094 4.90625 -7.851562 5.28125 -7.671875 C 5.390625 -7.617188 5.480469 -7.582031 5.605469 -7.582031 C 5.984375 -7.582031 6.253906 -7.886719 6.253906 -8.230469 C 6.253906 -8.984375 4.796875 -9.234375 3.863281 -9.234375 C 1.957031 -9.234375 0.953125 -8.191406 0.953125 -6.648438 Z M 0.953125 -6.648438 "/></g></g></g><g fill="#4e5b41" fill-opacity="1"><g transform="translate(254.768631, 204.552676)"><g><path d="M 6.324219 -2.210938 C 6.324219 -2.066406 6.34375 -1.886719 6.359375 -1.707031 C 5.769531 -1.328125 5.085938 -1.113281 4.382812 -1.113281 C 3.304688 -1.113281 2.730469 -1.886719 2.730469 -3.253906 L 2.730469 -8.5 C 2.730469 -8.875 2.480469 -9.179688 2.03125 -9.179688 C 1.582031 -9.179688 1.328125 -8.875 1.328125 -8.5 L 1.328125 -3.253906 C 1.328125 -1.222656 2.28125 0.144531 4.1875 0.144531 C 5.03125 0.144531 5.949219 -0.0546875 6.738281 -0.503906 C 6.9375 -0.179688 7.167969 0.0351562 7.511719 0.0351562 C 7.886719 0.0351562 8.175781 -0.25 8.175781 -0.59375 C 8.175781 -0.753906 8.085938 -0.878906 8.050781 -0.953125 C 7.90625 -1.222656 7.726562 -1.222656 7.726562 -2.210938 L 7.726562 -8.5 C 7.726562 -8.875 7.492188 -9.179688 7.027344 -9.179688 C 6.558594 -9.179688 6.324219 -8.875 6.324219 -8.5 Z M 6.324219 -2.210938 "/></g></g></g><g fill="#4e5b41" fill-opacity="1"><g transform="translate(263.914238, 204.552676)"><g><path d="M 4.78125 0.125 C 7.0625 0.125 7.78125 -1.367188 7.78125 -3.503906 L 7.78125 -5.839844 C 7.78125 -7.851562 6.808594 -9.234375 4.921875 -9.234375 C 3.988281 -9.234375 3.109375 -8.875 2.300781 -8.445312 C 2.121094 -8.695312 1.886719 -8.875 1.597656 -8.875 C 1.292969 -8.875 0.96875 -8.625 0.96875 -8.246094 C 0.96875 -8.085938 1.023438 -7.996094 1.097656 -7.886719 C 1.3125 -7.566406 1.382812 -7.222656 1.382812 -6.628906 L 1.382812 3.179688 C 1.382812 3.558594 1.636719 3.863281 2.085938 3.863281 C 2.535156 3.863281 2.785156 3.558594 2.785156 3.179688 L 2.785156 -0.214844 C 3.433594 0 4.167969 0.125 4.78125 0.125 Z M 2.785156 -6.628906 C 2.785156 -6.847656 2.75 -7.097656 2.695312 -7.367188 C 3.304688 -7.746094 4.023438 -7.976562 4.636719 -7.976562 C 5.820312 -7.976562 6.378906 -7.242188 6.378906 -5.839844 L 6.378906 -3.503906 C 6.378906 -1.832031 5.910156 -1.097656 4.601562 -1.097656 C 4.152344 -1.097656 3.359375 -1.203125 2.785156 -1.472656 Z M 2.785156 -6.628906 "/></g></g></g><g fill="#4e5b41" fill-opacity="1"><g transform="translate(272.502851, 204.552676)"><g><path d="M 4.78125 0.125 C 7.0625 0.125 7.78125 -1.367188 7.78125 -3.503906 L 7.78125 -5.839844 C 7.78125 -7.851562 6.808594 -9.234375 4.921875 -9.234375 C 3.988281 -9.234375 3.109375 -8.875 2.300781 -8.445312 C 2.121094 -8.695312 1.886719 -8.875 1.597656 -8.875 C 1.292969 -8.875 0.96875 -8.625 0.96875 -8.246094 C 0.96875 -8.085938 1.023438 -7.996094 1.097656 -7.886719 C 1.3125 -7.566406 1.382812 -7.222656 1.382812 -6.628906 L 1.382812 3.179688 C 1.382812 3.558594 1.636719 3.863281 2.085938 3.863281 C 2.535156 3.863281 2.785156 3.558594 2.785156 3.179688 L 2.785156 -0.214844 C 3.433594 0 4.167969 0.125 4.78125 0.125 Z M 2.785156 -6.628906 C 2.785156 -6.847656 2.75 -7.097656 2.695312 -7.367188 C 3.304688 -7.746094 4.023438 -7.976562 4.636719 -7.976562 C 5.820312 -7.976562 6.378906 -7.242188 6.378906 -5.839844 L 6.378906 -3.503906 C 6.378906 -1.832031 5.910156 -1.097656 4.601562 -1.097656 C 4.152344 -1.097656 3.359375 -1.203125 2.785156 -1.472656 Z M 2.785156 -6.628906 "/></g></g></g><g fill="#4e5b41" fill-opacity="1"><g transform="translate(281.091463, 204.552676)"><g><path d="M 4.167969 0.144531 C 6.359375 0.144531 7.527344 -1.257812 7.527344 -3.054688 L 7.527344 -6.054688 C 7.527344 -7.851562 6.359375 -9.253906 4.167969 -9.253906 C 1.976562 -9.253906 0.808594 -7.851562 0.808594 -6.054688 L 0.808594 -3.054688 C 0.808594 -1.257812 1.976562 0.144531 4.167969 0.144531 Z M 4.167969 -1.148438 C 2.875 -1.148438 2.210938 -1.867188 2.210938 -3.054688 L 2.210938 -6.074219 C 2.210938 -7.242188 2.875 -7.960938 4.167969 -7.960938 C 5.460938 -7.960938 6.128906 -7.242188 6.128906 -6.074219 L 6.128906 -3.054688 C 6.128906 -1.867188 5.460938 -1.148438 4.167969 -1.148438 Z M 4.167969 -1.148438 "/></g></g></g><g fill="#4e5b41" fill-opacity="1"><g transform="translate(289.428527, 204.552676)"><g><path d="M 2.785156 -6.628906 C 2.785156 -6.773438 2.765625 -6.9375 2.75 -7.117188 C 3.648438 -7.78125 4.292969 -7.78125 5.03125 -7.761719 C 5.410156 -7.746094 5.730469 -8.03125 5.730469 -8.480469 C 5.730469 -8.859375 5.515625 -9.164062 4.796875 -9.164062 C 4.113281 -9.164062 3.109375 -8.875 2.335938 -8.390625 C 2.15625 -8.679688 1.90625 -8.875 1.617188 -8.875 C 1.277344 -8.875 0.96875 -8.625 0.96875 -8.246094 C 0.96875 -8.085938 1.023438 -7.996094 1.097656 -7.886719 C 1.3125 -7.566406 1.382812 -7.222656 1.382812 -6.628906 L 1.382812 -0.558594 C 1.382812 -0.160156 1.6875 0.144531 2.085938 0.144531 C 2.480469 0.144531 2.785156 -0.160156 2.785156 -0.558594 Z M 2.785156 -6.628906 "/></g></g></g><g fill="#4e5b41" fill-opacity="1"><g transform="translate(295.483681, 204.552676)"><g><path d="M 1.328125 -3.648438 C 1.328125 -1.167969 1.941406 0.0703125 4.457031 0.0703125 C 4.960938 0.0703125 5.480469 0 5.480469 -0.609375 C 5.480469 -1.1875 4.960938 -1.257812 4.546875 -1.257812 C 4.4375 -1.257812 4.3125 -1.238281 4.203125 -1.238281 C 2.910156 -1.238281 2.730469 -1.921875 2.730469 -3.773438 L 2.730469 -7.347656 L 4.601562 -7.347656 C 4.960938 -7.347656 5.246094 -7.636719 5.246094 -8.011719 C 5.246094 -8.390625 4.960938 -8.679688 4.601562 -8.679688 L 2.730469 -8.679688 L 2.730469 -11.15625 C 2.730469 -11.535156 2.480469 -11.839844 2.03125 -11.839844 C 1.582031 -11.839844 1.328125 -11.535156 1.328125 -11.15625 Z M 1.328125 -3.648438 "/></g></g></g></svg>